<svg id="visual" viewBox="0 0 900 600" width="900" height="600" xmlns="http://www.w3.org/2000/svg" xmlns:xlink="http://www.w3.org/1999/xlink" version="1.1"><rect x="0" y="0" width="900" height="600" fill="#001220"></rect><defs><linearGradient id="grad1_0" x1="33.3%" y1="0%" x2="100%" y2="100%"><stop offset="20%" stop-color="#001220" stop-opacity="1"></stop><stop offset="80%" stop-color="#001220" stop-opacity="1"></stop></linearGradient></defs><defs><linearGradient id="grad2_0" x1="0%" y1="0%" x2="66.7%" y2="100%"><stop offset="20%" stop-color="#001220" stop-opacity="1"></stop><stop offset="80%" stop-color="#001220" stop-opacity="1"></stop></linearGradient></defs><g transform="translate(900, 0)"><path d="M0 486.7C-40.2 492.1 -80.3 497.5 -108.3 474.5C-136.3 451.6 -152.2 400.5 -184.8 383.8C-217.5 367.2 -267 385 -294.3 369C-321.6 353 -326.8 303.1 -332.3 265C-337.7 226.8 -343.5 200.4 -367.6 177C-391.7 153.7 -434.3 133.4 -457.2 104.4C-480.2 75.4 -483.5 37.7 -486.7 0L0 0Z" fill="#FBAE3C"></path></g><g transform="translate(0, 600)"><path d="M0 -486.7C28.7 -443.6 57.3 -400.4 88.3 -387C119.4 -373.7 152.7 -390.3 191.3 -397.3C230 -404.3 273.8 -401.7 303.5 -380.6C333.1 -359.4 348.5 -319.6 351.8 -280.6C355.1 -241.5 346.4 -203.1 364 -175.3C381.6 -147.5 425.6 -130.3 450.4 -102.8C475.3 -75.4 481 -37.7 486.7 0L0 0Z" fill="#FBAE3C"></path></g></svg>