<?xml version="1.0" encoding="utf-8"?>
<svg xmlns="http://www.w3.org/2000/svg" xmlns:xlink="http://www.w3.org/1999/xlink" style="margin: auto; background: rgb(241, 242, 243); display: block; z-index: 1; position: relative; shape-rendering: auto;" width="2489" height="1353" preserveAspectRatio="xMidYMid" viewBox="0 0 2489 1353">
<g transform="translate(1244.5,676.5) scale(1,1) translate(-1244.5,-676.5)"><defs>
<linearGradient id="lg-0.1065282517703634" x1="0" x2="0" y1="0" y2="1">
  <stop stop-color="#020621" offset="0.3"></stop>
  <stop stop-color="#2bde73" offset="0.6499999999999999"></stop>
  <stop stop-color="#2bde73" offset="1"></stop>
</linearGradient>
<linearGradient id="fg-lg-0.1065282517703634" x1="0" x2="0" y1="0" y2="1">
  <stop stop-color="#020621" stop-opacity="1" offset="0.3"></stop>
  <stop stop-color="#2bde73" stop-opacity="0.66" offset="0.6499999999999999"></stop>
  <stop stop-color="#2bde73" stop-opacity="0" offset="1"></stop>
</linearGradient>
<style type="text/css">
  path { fill: none; stroke: #020621; stroke-width: 2px }
</style>
</defs>
<rect x="0" y="0" width="2489" height="1353" fill="url(#lg-0.1065282517703634)"></rect><path d="M0 405.9 L-17423 1353"></path><path d="M19.146153846153847 405.9 L-17135.80769230769 1353"></path><path d="M38.292307692307695 405.9 L-16848.615384615383 1353"></path><path d="M57.43846153846154 405.9 L-16561.423076923078 1353"></path><path d="M76.58461538461539 405.9 L-16274.23076923077 1353"></path><path d="M95.73076923076923 405.9 L-15987.038461538461 1353"></path><path d="M114.87692307692308 405.9 L-15699.846153846154 1353"></path><path d="M134.02307692307693 405.9 L-15412.653846153846 1353"></path><path d="M153.16923076923078 405.9 L-15125.461538461539 1353"></path><path d="M172.3153846153846 405.9 L-14838.26923076923 1353"></path><path d="M191.46153846153845 405.9 L-14551.076923076922 1353"></path><path d="M210.6076923076923 405.9 L-14263.884615384615 1353"></path><path d="M229.75384615384615 405.9 L-13976.692307692309 1353"></path><path d="M248.9 405.9 L-13689.5 1353"></path><path d="M268.04615384615386 405.9 L-13402.307692307691 1353"></path><path d="M287.1923076923077 405.9 L-13115.115384615385 1353"></path><path d="M306.33846153846156 405.9 L-12827.923076923078 1353"></path><path d="M325.4846153846154 405.9 L-12540.73076923077 1353"></path><path d="M344.6307692307692 405.9 L-12253.538461538461 1353"></path><path d="M363.7769230769231 405.9 L-11966.346153846154 1353"></path><path d="M382.9230769230769 405.9 L-11679.153846153846 1353"></path><path d="M402.0692307692308 405.9 L-11391.961538461539 1353"></path><path d="M421.2153846153846 405.9 L-11104.76923076923 1353"></path><path d="M440.3615384615385 405.9 L-10817.576923076922 1353"></path><path d="M459.5076923076923 405.9 L-10530.384615384615 1353"></path><path d="M478.65384615384613 405.9 L-10243.192307692309 1353"></path><path d="M497.8 405.9 L-9956 1353"></path><path d="M516.9461538461538 405.9 L-9668.807692307691 1353"></path><path d="M536.0923076923077 405.9 L-9381.615384615385 1353"></path><path d="M555.2384615384616 405.9 L-9094.423076923076 1353"></path><path d="M574.3846153846154 405.9 L-8807.23076923077 1353"></path><path d="M593.5307692307692 405.9 L-8520.038461538461 1353"></path><path d="M612.6769230769231 405.9 L-8232.846153846154 1353"></path><path d="M631.8230769230769 405.9 L-7945.653846153846 1353"></path><path d="M650.9692307692308 405.9 L-7658.461538461539 1353"></path><path d="M670.1153846153846 405.9 L-7371.2692307692305 1353"></path><path d="M689.2615384615384 405.9 L-7084.076923076924 1353"></path><path d="M708.4076923076923 405.9 L-6796.884615384615 1353"></path><path d="M727.5538461538462 405.9 L-6509.6923076923085 1353"></path><path d="M746.7 405.9 L-6222.5 1353"></path><path d="M765.8461538461538 405.9 L-5935.3076923076915 1353"></path><path d="M784.9923076923077 405.9 L-5648.115384615385 1353"></path><path d="M804.1384615384616 405.9 L-5360.923076923076 1353"></path><path d="M823.2846153846153 405.9 L-5073.7307692307695 1353"></path><path d="M842.4307692307692 405.9 L-4786.538461538461 1353"></path><path d="M861.5769230769231 405.9 L-4499.346153846154 1353"></path><path d="M880.723076923077 405.9 L-4212.153846153846 1353"></path><path d="M899.8692307692307 405.9 L-3924.961538461539 1353"></path><path d="M919.0153846153846 405.9 L-3637.7692307692305 1353"></path><path d="M938.1615384615385 405.9 L-3350.576923076924 1353"></path><path d="M957.3076923076923 405.9 L-3063.3846153846152 1353"></path><path d="M976.4538461538461 405.9 L-2776.1923076923085 1353"></path><path d="M995.6 405.9 L-2489 1353"></path><path d="M1014.7461538461539 405.9 L-2201.8076923076915 1353"></path><path d="M1033.8923076923077 405.9 L-1914.6153846153848 1353"></path><path d="M1053.0384615384614 405.9 L-1627.4230769230762 1353"></path><path d="M1072.1846153846154 405.9 L-1340.2307692307695 1353"></path><path d="M1091.3307692307692 405.9 L-1053.038461538461 1353"></path><path d="M1110.4769230769232 405.9 L-765.8461538461524 1353"></path><path d="M1129.623076923077 405.9 L-478.65384615384755 1353"></path><path d="M1148.7692307692307 405.9 L-191.46153846153902 1353"></path><path d="M1167.9153846153847 405.9 L95.73076923076951 1353"></path><path d="M1187.0615384615385 405.9 L382.92307692307804 1353"></path><path d="M1206.2076923076922 405.9 L670.1153846153829 1353"></path><path d="M1225.3538461538462 405.9 L957.3076923076915 1353"></path><path d="M1244.5 405.9 L1244.5 1353"></path><path d="M1263.6461538461538 405.9 L1531.6923076923085 1353"></path><path d="M1282.7923076923078 405.9 L1818.884615384617 1353"></path><path d="M1301.9384615384615 405.9 L2106.076923076922 1353"></path><path d="M1321.0846153846153 405.9 L2393.2692307692305 1353"></path><path d="M1340.2307692307693 405.9 L2680.461538461539 1353"></path><path d="M1359.376923076923 405.9 L2967.6538461538476 1353"></path><path d="M1378.5230769230768 405.9 L3254.8461538461524 1353"></path><path d="M1397.6692307692308 405.9 L3542.038461538461 1353"></path><path d="M1416.8153846153846 405.9 L3829.2307692307695 1353"></path><path d="M1435.9615384615386 405.9 L4116.423076923078 1353"></path><path d="M1455.1076923076923 405.9 L4403.615384615383 1353"></path><path d="M1474.253846153846 405.9 L4690.8076923076915 1353"></path><path d="M1493.4 405.9 L4978 1353"></path><path d="M1512.5461538461539 405.9 L5265.1923076923085 1353"></path><path d="M1531.6923076923076 405.9 L5552.384615384617 1353"></path><path d="M1550.8384615384616 405.9 L5839.576923076922 1353"></path><path d="M1569.9846153846154 405.9 L6126.7692307692305 1353"></path><path d="M1589.1307692307691 405.9 L6413.961538461539 1353"></path><path d="M1608.2769230769231 405.9 L6701.153846153848 1353"></path><path d="M1627.423076923077 405.9 L6988.346153846152 1353"></path><path d="M1646.5692307692307 405.9 L7275.538461538461 1353"></path><path d="M1665.7153846153847 405.9 L7562.7307692307695 1353"></path><path d="M1684.8615384615384 405.9 L7849.923076923078 1353"></path><path d="M1704.0076923076922 405.9 L8137.115384615383 1353"></path><path d="M1723.1538461538462 405.9 L8424.307692307691 1353"></path><path d="M1742.3 405.9 L8711.5 1353"></path><path d="M1761.446153846154 405.9 L8998.692307692309 1353"></path><path d="M1780.5923076923077 405.9 L9285.884615384617 1353"></path><path d="M1799.7384615384615 405.9 L9573.076923076922 1353"></path><path d="M1818.8846153846155 405.9 L9860.26923076923 1353"></path><path d="M1838.0307692307692 405.9 L10147.461538461539 1353"></path><path d="M1857.176923076923 405.9 L10434.653846153848 1353"></path><path d="M1876.323076923077 405.9 L10721.846153846152 1353"></path><path d="M1895.4692307692308 405.9 L11009.038461538461 1353"></path><path d="M1914.6153846153845 405.9 L11296.23076923077 1353"></path><path d="M1933.7615384615385 405.9 L11583.423076923078 1353"></path><path d="M1952.9076923076923 405.9 L11870.615384615383 1353"></path><path d="M1972.053846153846 405.9 L12157.807692307691 1353"></path><path d="M1991.2 405.9 L12445 1353"></path><path d="M2010.3461538461538 405.9 L12732.192307692309 1353"></path><path d="M2029.4923076923078 405.9 L13019.384615384617 1353"></path><path d="M2048.6384615384613 405.9 L13306.576923076922 1353"></path><path d="M2067.7846153846153 405.9 L13593.76923076923 1353"></path><path d="M2086.9307692307693 405.9 L13880.961538461539 1353"></path><path d="M2106.076923076923 405.9 L14168.153846153848 1353"></path><path d="M2125.223076923077 405.9 L14455.346153846152 1353"></path><path d="M2144.369230769231 405.9 L14742.538461538461 1353"></path><path d="M2163.5153846153844 405.9 L15029.73076923077 1353"></path><path d="M2182.6615384615384 405.9 L15316.923076923078 1353"></path><path d="M2201.8076923076924 405.9 L15604.115384615383 1353"></path><path d="M2220.9538461538464 405.9 L15891.307692307695 1353"></path><path d="M2240.1 405.9 L16178.5 1353"></path><path d="M2259.246153846154 405.9 L16465.692307692305 1353"></path><path d="M2278.392307692308 405.9 L16752.884615384617 1353"></path><path d="M2297.5384615384614 405.9 L17040.076923076922 1353"></path><path d="M2316.6846153846154 405.9 L17327.269230769234 1353"></path><path d="M2335.8307692307694 405.9 L17614.46153846154 1353"></path><path d="M2354.976923076923 405.9 L17901.653846153844 1353"></path><path d="M2374.123076923077 405.9 L18188.846153846156 1353"></path><path d="M2393.269230769231 405.9 L18476.03846153846 1353"></path><path d="M2412.4153846153845 405.9 L18763.230769230766 1353"></path><path d="M2431.5615384615385 405.9 L19050.423076923078 1353"></path><path d="M2450.7076923076925 405.9 L19337.615384615383 1353"></path><path d="M2469.853846153846 405.9 L19624.807692307695 1353"></path><path d="M2489 405.9 L19912 1353"></path><g>
<path d="M0 405.9 L2489 405.9"></path>
<animateTransform attributeName="transform" type="translate" repeatCount="indefinite" calcMode="linear" keyTimes="0;1" values="0 0;0 7.173301775147928" begin="0s" dur="0.8333333333333334s"></animateTransform>

</g><g>
<path d="M0 413.0733017751479 L2489 413.0733017751479"></path>
<animateTransform attributeName="transform" type="translate" repeatCount="indefinite" calcMode="linear" keyTimes="0;1" values="0 0;0 14.346603550295859" begin="0s" dur="0.8333333333333334s"></animateTransform>

</g><g>
<path d="M0 427.4199053254438 L2489 427.4199053254438"></path>
<animateTransform attributeName="transform" type="translate" repeatCount="indefinite" calcMode="linear" keyTimes="0;1" values="0 0;0 21.519905325443787" begin="0s" dur="0.8333333333333334s"></animateTransform>

</g><g>
<path d="M0 448.9398106508876 L2489 448.9398106508876"></path>
<animateTransform attributeName="transform" type="translate" repeatCount="indefinite" calcMode="linear" keyTimes="0;1" values="0 0;0 28.693207100591714" begin="0s" dur="0.8333333333333334s"></animateTransform>

</g><g>
<path d="M0 477.6330177514793 L2489 477.6330177514793"></path>
<animateTransform attributeName="transform" type="translate" repeatCount="indefinite" calcMode="linear" keyTimes="0;1" values="0 0;0 35.86650887573964" begin="0s" dur="0.8333333333333334s"></animateTransform>

</g><g>
<path d="M0 513.499526627219 L2489 513.499526627219"></path>
<animateTransform attributeName="transform" type="translate" repeatCount="indefinite" calcMode="linear" keyTimes="0;1" values="0 0;0 43.03981065088757" begin="0s" dur="0.8333333333333334s"></animateTransform>

</g><g>
<path d="M0 556.5393372781066 L2489 556.5393372781066"></path>
<animateTransform attributeName="transform" type="translate" repeatCount="indefinite" calcMode="linear" keyTimes="0;1" values="0 0;0 50.213112426035494" begin="0s" dur="0.8333333333333334s"></animateTransform>

</g><g>
<path d="M0 606.7524497041421 L2489 606.7524497041421"></path>
<animateTransform attributeName="transform" type="translate" repeatCount="indefinite" calcMode="linear" keyTimes="0;1" values="0 0;0 57.38641420118342" begin="0s" dur="0.8333333333333334s"></animateTransform>

</g><g>
<path d="M0 664.1388639053256 L2489 664.1388639053256"></path>
<animateTransform attributeName="transform" type="translate" repeatCount="indefinite" calcMode="linear" keyTimes="0;1" values="0 0;0 64.55971597633135" begin="0s" dur="0.8333333333333334s"></animateTransform>

</g><g>
<path d="M0 728.698579881657 L2489 728.698579881657"></path>
<animateTransform attributeName="transform" type="translate" repeatCount="indefinite" calcMode="linear" keyTimes="0;1" values="0 0;0 71.73301775147928" begin="0s" dur="0.8333333333333334s"></animateTransform>

</g><g>
<path d="M0 800.4315976331363 L2489 800.4315976331363"></path>
<animateTransform attributeName="transform" type="translate" repeatCount="indefinite" calcMode="linear" keyTimes="0;1" values="0 0;0 78.90631952662721" begin="0s" dur="0.8333333333333334s"></animateTransform>

</g><g>
<path d="M0 879.3379171597635 L2489 879.3379171597635"></path>
<animateTransform attributeName="transform" type="translate" repeatCount="indefinite" calcMode="linear" keyTimes="0;1" values="0 0;0 86.07962130177515" begin="0s" dur="0.8333333333333334s"></animateTransform>

</g><g>
<path d="M0 965.4175384615387 L2489 965.4175384615387"></path>
<animateTransform attributeName="transform" type="translate" repeatCount="indefinite" calcMode="linear" keyTimes="0;1" values="0 0;0 93.25292307692308" begin="0s" dur="0.8333333333333334s"></animateTransform>

</g><g>
<path d="M0 1058.6704615384617 L2489 1058.6704615384617"></path>
<animateTransform attributeName="transform" type="translate" repeatCount="indefinite" calcMode="linear" keyTimes="0;1" values="0 0;0 100.42622485207102" begin="0s" dur="0.8333333333333334s"></animateTransform>

</g><g>
<path d="M0 1159.0966863905328 L2489 1159.0966863905328"></path>
<animateTransform attributeName="transform" type="translate" repeatCount="indefinite" calcMode="linear" keyTimes="0;1" values="0 0;0 107.59952662721895" begin="0s" dur="0.8333333333333334s"></animateTransform>

</g><g>
<path d="M0 1266.6962130177517 L2489 1266.6962130177517"></path>
<animateTransform attributeName="transform" type="translate" repeatCount="indefinite" calcMode="linear" keyTimes="0;1" values="0 0;0 114.77282840236688" begin="0s" dur="0.8333333333333334s"></animateTransform>

</g><g>
<path d="M0 1381.4690414201186 L2489 1381.4690414201186"></path>
<animateTransform attributeName="transform" type="translate" repeatCount="indefinite" calcMode="linear" keyTimes="0;1" values="0 0;0 121.94613017751482" begin="0s" dur="0.8333333333333334s"></animateTransform>

</g><rect x="0" y="0" width="2489" height="1353" fill="url(#fg-lg-0.1065282517703634)"></rect></g>
</svg>