<?xml version="1.0" encoding="utf-8"?>
<svg xmlns="http://www.w3.org/2000/svg" xmlns:xlink="http://www.w3.org/1999/xlink" style="margin: auto; background: rgb(41, 41, 41); display: block; z-index: 1; position: relative; shape-rendering: auto;" width="1358" height="1353" preserveAspectRatio="xMidYMid" viewBox="0 0 1358 1353">
<g transform="translate(679,676.5) scale(1,1) translate(-679,-676.5)"><path d="M-100 1100.97C-6.43 1071.79 -12.91 1045.45 73.11 1045.45S161.76 1080.83 246.22 1080.83S338.06 1067.27 419.33 1067.27S508.91 1067.67 592.44 1067.67S680.59 1075.48 765.56 1075.48S853.86 1063.06 938.67 1063.06S1025.47 1073.8 1111.78 1073.8S1199.99 1113.92 1284.89 1113.92S1378.52 1081.46 1458 1081.46S1550.49 1042.77 1631.11 1042.77L1458 1353 L-100 1353 Z" fill="#346b21" stroke-width="0">
  <animate attributeName="d" dur="23.076923076923077s" repeatCount="indefinite" values="M-100 1100.97C-6.43 1071.79 -12.91 1045.45 73.11 1045.45S161.76 1080.83 246.22 1080.83S338.06 1067.27 419.33 1067.27S508.91 1067.67 592.44 1067.67S680.59 1075.48 765.56 1075.48S853.86 1063.06 938.67 1063.06S1025.47 1073.8 1111.78 1073.8S1199.99 1113.92 1284.89 1113.92S1378.52 1081.46 1458 1081.46S1550.49 1042.77 1631.11 1042.77L1458 1353 L-100 1353 Z;M-100 1102.84C-10.01 1107.82 -9.24 1070.46 73.11 1070.46S165.55 1099.43 246.22 1099.43S333.27 1069.01 419.33 1069.01S505.94 1110.21 592.44 1110.21S679.74 1057.04 765.56 1057.04S858.54 1054.67 938.67 1054.67S1025.63 1060.96 1111.78 1060.96S1201.52 1051.5 1284.89 1051.5S1374.75 1103.96 1458 1103.96S1551.37 1082.95 1631.11 1082.95L1458 1353 L-100 1353 Z;M-100 1100.97C-6.43 1071.79 -12.91 1045.45 73.11 1045.45S161.76 1080.83 246.22 1080.83S338.06 1067.27 419.33 1067.27S508.91 1067.67 592.44 1067.67S680.59 1075.48 765.56 1075.48S853.86 1063.06 938.67 1063.06S1025.47 1073.8 1111.78 1073.8S1199.99 1113.92 1284.89 1113.92S1378.52 1081.46 1458 1081.46S1550.49 1042.77 1631.11 1042.77L1458 1353 L-100 1353 Z"></animate>
  <animateTransform attributeName="transform" type="translate" dur="23.076923076923077s" begin="0s" repeatCount="indefinite" values="0;10;0" calcMode="spline" keySplines="0.3 0 0.7 1;0.3 0 0.7 1"></animateTransform>
</path><path d="M-100 1076.11C-3.97 1103.62 -6.07 1099.7 78.62 1099.7S173.9 1058.76 257.25 1058.76S352.36 1075.4 435.87 1075.4S525.27 1100.69 614.5 1100.69S708.97 1091.24 793.12 1091.24S885.43 1129.04 971.75 1129.04S1065.87 1113.65 1150.37 1113.65S1242.67 1095.19 1328.99 1095.19S1422.14 1107.88 1507.62 1107.88L1458 1353 L-100 1353 Z" fill="#3d7624" stroke-width="0">
  <animate attributeName="d" dur="20.51282051282051s" repeatCount="indefinite" values="M-100 1076.11C-3.97 1103.62 -6.07 1099.7 78.62 1099.7S173.9 1058.76 257.25 1058.76S352.36 1075.4 435.87 1075.4S525.27 1100.69 614.5 1100.69S708.97 1091.24 793.12 1091.24S885.43 1129.04 971.75 1129.04S1065.87 1113.65 1150.37 1113.65S1242.67 1095.19 1328.99 1095.19S1422.14 1107.88 1507.62 1107.88L1458 1353 L-100 1353 Z;M-100 1080.78C-7.05 1131.75 -8.76 1127.62 78.62 1127.62S173.19 1105.17 257.25 1105.17S350.85 1092.34 435.87 1092.34S527.21 1116.14 614.5 1116.14S710.57 1138.06 793.12 1138.06S884.73 1103.98 971.75 1103.98S1061.32 1128.35 1150.37 1128.35S1241.7 1071.28 1328.99 1071.28S1424.9 1080.42 1507.62 1080.42L1458 1353 L-100 1353 Z;M-100 1076.11C-3.97 1103.62 -6.07 1099.7 78.62 1099.7S173.9 1058.76 257.25 1058.76S352.36 1075.4 435.87 1075.4S525.27 1100.69 614.5 1100.69S708.97 1091.24 793.12 1091.24S885.43 1129.04 971.75 1129.04S1065.87 1113.65 1150.37 1113.65S1242.67 1095.19 1328.99 1095.19S1422.14 1107.88 1507.62 1107.88L1458 1353 L-100 1353 Z"></animate>
  <animateTransform attributeName="transform" type="translate" dur="20.51282051282051s" begin="-2.279202279202279s" repeatCount="indefinite" values="0;10;0" calcMode="spline" keySplines="0.3 0 0.7 1;0.3 0 0.7 1"></animateTransform>
</path><path d="M-100 1086.1C-4.13 1112.46 -4.91 1159.55 84.5 1159.55S177.28 1111.33 269 1111.33S364.59 1146.69 453.5 1146.69S552.44 1116.84 638 1116.84S730.27 1085.18 822.5 1085.18S920.64 1109.08 1007 1109.08S1102.89 1113.81 1191.5 1113.81S1287.89 1122.55 1376 1122.55S1472.82 1129.9 1560.5 1129.9L1458 1353 L-100 1353 Z" fill="#468127" stroke-width="0">
  <animate attributeName="d" dur="17.94871794871795s" repeatCount="indefinite" values="M-100 1086.1C-4.13 1112.46 -4.91 1159.55 84.5 1159.55S177.28 1111.33 269 1111.33S364.59 1146.69 453.5 1146.69S552.44 1116.84 638 1116.84S730.27 1085.18 822.5 1085.18S920.64 1109.08 1007 1109.08S1102.89 1113.81 1191.5 1113.81S1287.89 1122.55 1376 1122.55S1472.82 1129.9 1560.5 1129.9L1458 1353 L-100 1353 Z;M-100 1093.53C-2.74 1154.61 -7.72 1110.33 84.5 1110.33S179.73 1127.55 269 1127.55S366.54 1093.27 453.5 1093.27S547.93 1116.51 638 1116.51S733.4 1139.37 822.5 1139.37S914.88 1130.1 1007 1130.1S1101.27 1099.94 1191.5 1099.94S1285.16 1146.44 1376 1146.44S1469.51 1137.57 1560.5 1137.57L1458 1353 L-100 1353 Z;M-100 1086.1C-4.13 1112.46 -4.91 1159.55 84.5 1159.55S177.28 1111.33 269 1111.33S364.59 1146.69 453.5 1146.69S552.44 1116.84 638 1116.84S730.27 1085.18 822.5 1085.18S920.64 1109.08 1007 1109.08S1102.89 1113.81 1191.5 1113.81S1287.89 1122.55 1376 1122.55S1472.82 1129.9 1560.5 1129.9L1458 1353 L-100 1353 Z"></animate>
  <animateTransform attributeName="transform" type="translate" dur="17.94871794871795s" begin="-3.988603988603989s" repeatCount="indefinite" values="0;10;0" calcMode="spline" keySplines="0.3 0 0.7 1;0.3 0 0.7 1"></animateTransform>
</path><path d="M-100 1113.79C-2.55 1159.53 -2.31 1174.71 90.78 1174.71S188.3 1127.54 281.55 1127.54S383.48 1184.67 472.33 1184.67S567.82 1162.2 663.1 1162.2S758.55 1134.45 853.88 1134.45S954.71 1148.1 1044.65 1148.1S1142.14 1188.5 1235.43 1188.5S1333.55 1091.95 1426.2 1091.95S1523.83 1109.4 1616.98 1109.4L1458 1353 L-100 1353 Z" fill="#508c2a" stroke-width="0">
  <animate attributeName="d" dur="15.384615384615383s" repeatCount="indefinite" values="M-100 1113.79C-2.55 1159.53 -2.31 1174.71 90.78 1174.71S188.3 1127.54 281.55 1127.54S383.48 1184.67 472.33 1184.67S567.82 1162.2 663.1 1162.2S758.55 1134.45 853.88 1134.45S954.71 1148.1 1044.65 1148.1S1142.14 1188.5 1235.43 1188.5S1333.55 1091.95 1426.2 1091.95S1523.83 1109.4 1616.98 1109.4L1458 1353 L-100 1353 Z;M-100 1118.36C0.57 1124.18 -3.47 1138.4 90.78 1138.4S187.77 1131.88 281.55 1131.88S383.54 1160.11 472.33 1160.11S571.99 1094.66 663.1 1094.66S763.05 1157.61 853.88 1157.61S949.99 1130.83 1044.65 1130.83S1147.02 1123.99 1235.43 1123.99S1333.16 1091.64 1426.2 1091.64S1522.83 1126.19 1616.98 1126.19L1458 1353 L-100 1353 Z;M-100 1113.79C-2.55 1159.53 -2.31 1174.71 90.78 1174.71S188.3 1127.54 281.55 1127.54S383.48 1184.67 472.33 1184.67S567.82 1162.2 663.1 1162.2S758.55 1134.45 853.88 1134.45S954.71 1148.1 1044.65 1148.1S1142.14 1188.5 1235.43 1188.5S1333.55 1091.95 1426.2 1091.95S1523.83 1109.4 1616.98 1109.4L1458 1353 L-100 1353 Z"></animate>
  <animateTransform attributeName="transform" type="translate" dur="15.384615384615383s" begin="-5.128205128205128s" repeatCount="indefinite" values="0;10;0" calcMode="spline" keySplines="0.3 0 0.7 1;0.3 0 0.7 1"></animateTransform>
</path><path d="M-100 1177.14C3.23 1137.54 -1.2 1168.14 97.49 1168.14S198.41 1170.9 294.99 1170.9S395.17 1168.46 492.48 1168.46S595.37 1148.47 689.97 1148.47S789.17 1172.05 887.46 1172.05S992.33 1162.33 1084.96 1162.33S1189.18 1158.78 1282.45 1158.78S1386.84 1170.47 1479.94 1170.47L1458 1353 L-100 1353 Z" fill="#5a972c" stroke-width="0">
  <animate attributeName="d" dur="12.82051282051282s" repeatCount="indefinite" values="M-100 1177.14C3.23 1137.54 -1.2 1168.14 97.49 1168.14S198.41 1170.9 294.99 1170.9S395.17 1168.46 492.48 1168.46S595.37 1148.47 689.97 1148.47S789.17 1172.05 887.46 1172.05S992.33 1162.33 1084.96 1162.33S1189.18 1158.78 1282.45 1158.78S1386.84 1170.47 1479.94 1170.47L1458 1353 L-100 1353 Z;M-100 1200.3C-0.69 1211.91 5.78 1165.1 97.49 1165.1S198.26 1154.69 294.99 1154.69S398.7 1199.47 492.48 1199.47S593.12 1174.86 689.97 1174.86S794.32 1191.45 887.46 1191.45S990.56 1157.27 1084.96 1157.27S1189.45 1164.3 1282.45 1164.3S1387.46 1177.77 1479.94 1177.77L1458 1353 L-100 1353 Z;M-100 1177.14C3.23 1137.54 -1.2 1168.14 97.49 1168.14S198.41 1170.9 294.99 1170.9S395.17 1168.46 492.48 1168.46S595.37 1148.47 689.97 1148.47S789.17 1172.05 887.46 1172.05S992.33 1162.33 1084.96 1162.33S1189.18 1158.78 1282.45 1158.78S1386.84 1170.47 1479.94 1170.47L1458 1353 L-100 1353 Z"></animate>
  <animateTransform attributeName="transform" type="translate" dur="12.82051282051282s" begin="-5.698005698005698s" repeatCount="indefinite" values="0;10;0" calcMode="spline" keySplines="0.3 0 0.7 1;0.3 0 0.7 1"></animateTransform>
</path><path d="M-100 1190.1C9.09 1156.44 6.26 1182.41 104.7 1182.41S213.63 1154.42 309.4 1154.42S414.34 1209 514.1 1209S617.41 1205.28 718.8 1205.28S821.55 1171.18 923.5 1171.18S1026.76 1180.7 1128.2 1180.7S1231.91 1206.01 1332.91 1206.01S1435.56 1233.07 1537.61 1233.07L1458 1353 L-100 1353 Z" fill="#65a32f" stroke-width="0">
  <animate attributeName="d" dur="10.256410256410255s" repeatCount="indefinite" values="M-100 1190.1C9.09 1156.44 6.26 1182.41 104.7 1182.41S213.63 1154.42 309.4 1154.42S414.34 1209 514.1 1209S617.41 1205.28 718.8 1205.28S821.55 1171.18 923.5 1171.18S1026.76 1180.7 1128.2 1180.7S1231.91 1206.01 1332.91 1206.01S1435.56 1233.07 1537.61 1233.07L1458 1353 L-100 1353 Z;M-100 1171.23C4.97 1130.28 5.7 1213.88 104.7 1213.88S207.59 1228.94 309.4 1228.94S418.73 1176.96 514.1 1176.96S618.15 1127.32 718.8 1127.32S822.57 1229.91 923.5 1229.91S1031.09 1152.43 1128.2 1152.43S1232.74 1229.17 1332.91 1229.17S1442.23 1173.51 1537.61 1173.51L1458 1353 L-100 1353 Z;M-100 1190.1C9.09 1156.44 6.26 1182.41 104.7 1182.41S213.63 1154.42 309.4 1154.42S414.34 1209 514.1 1209S617.41 1205.28 718.8 1205.28S821.55 1171.18 923.5 1171.18S1026.76 1180.7 1128.2 1180.7S1231.91 1206.01 1332.91 1206.01S1435.56 1233.07 1537.61 1233.07L1458 1353 L-100 1353 Z"></animate>
  <animateTransform attributeName="transform" type="translate" dur="10.256410256410255s" begin="-5.698005698005698s" repeatCount="indefinite" values="0;10;0" calcMode="spline" keySplines="0.3 0 0.7 1;0.3 0 0.7 1"></animateTransform>
</path><path d="M-100 1172.62C11.91 1182.83 12.29 1197.92 112.45 1197.92S220.01 1171.68 324.91 1171.68S437.78 1176.35 537.36 1176.35S647.81 1187.14 749.82 1187.14S862.09 1213.6 962.27 1213.6S1072.03 1150.69 1174.73 1150.69S1281.62 1255.46 1387.18 1255.46S1497.37 1153.65 1599.64 1153.65L1458 1353 L-100 1353 Z" fill="#70ae31" stroke-width="0">
  <animate attributeName="d" dur="7.692307692307692s" repeatCount="indefinite" values="M-100 1172.62C11.91 1182.83 12.29 1197.92 112.45 1197.92S220.01 1171.68 324.91 1171.68S437.78 1176.35 537.36 1176.35S647.81 1187.14 749.82 1187.14S862.09 1213.6 962.27 1213.6S1072.03 1150.69 1174.73 1150.69S1281.62 1255.46 1387.18 1255.46S1497.37 1153.65 1599.64 1153.65L1458 1353 L-100 1353 Z;M-100 1166.65C11.76 1167.3 8.76 1202.49 112.45 1202.49S222.52 1231.22 324.91 1231.22S437.13 1253.48 537.36 1253.48S650.8 1160.39 749.82 1160.39S857.01 1204.23 962.27 1204.23S1074.2 1187.52 1174.73 1187.52S1284.37 1204.73 1387.18 1204.73S1494.59 1154.87 1599.64 1154.87L1458 1353 L-100 1353 Z;M-100 1172.62C11.91 1182.83 12.29 1197.92 112.45 1197.92S220.01 1171.68 324.91 1171.68S437.78 1176.35 537.36 1176.35S647.81 1187.14 749.82 1187.14S862.09 1213.6 962.27 1213.6S1072.03 1150.69 1174.73 1150.69S1281.62 1255.46 1387.18 1255.46S1497.37 1153.65 1599.64 1153.65L1458 1353 L-100 1353 Z"></animate>
  <animateTransform attributeName="transform" type="translate" dur="7.692307692307692s" begin="-5.128205128205128s" repeatCount="indefinite" values="0;10;0" calcMode="spline" keySplines="0.3 0 0.7 1;0.3 0 0.7 1"></animateTransform>
</path><path d="M-100 1190.62C14.16 1223.21 16.89 1221.91 120.82 1221.91S237.93 1255.91 341.64 1255.91S454.93 1245.04 562.46 1245.04S673.15 1191.36 783.28 1191.36S899.91 1243.03 1004.09 1243.03S1120.23 1218.96 1224.91 1218.96S1336.13 1244.51 1445.73 1244.51S1560.23 1227.62 1666.55 1227.62L1458 1353 L-100 1353 Z" fill="#7cba33" stroke-width="0">
  <animate attributeName="d" dur="5.128205128205128s" repeatCount="indefinite" values="M-100 1190.62C14.16 1223.21 16.89 1221.91 120.82 1221.91S237.93 1255.91 341.64 1255.91S454.93 1245.04 562.46 1245.04S673.15 1191.36 783.28 1191.36S899.91 1243.03 1004.09 1243.03S1120.23 1218.96 1224.91 1218.96S1336.13 1244.51 1445.73 1244.51S1560.23 1227.62 1666.55 1227.62L1458 1353 L-100 1353 Z;M-100 1199.67C14.7 1226.42 12.13 1251.06 120.82 1251.06S232.4 1224.44 341.64 1224.44S454.13 1288.13 562.46 1288.13S677.76 1164.58 783.28 1164.58S898.42 1236.09 1004.09 1236.09S1121.31 1158.87 1224.91 1158.87S1342.42 1246.89 1445.73 1246.89S1561.02 1217.22 1666.55 1217.22L1458 1353 L-100 1353 Z;M-100 1190.62C14.16 1223.21 16.89 1221.91 120.82 1221.91S237.93 1255.91 341.64 1255.91S454.93 1245.04 562.46 1245.04S673.15 1191.36 783.28 1191.36S899.91 1243.03 1004.09 1243.03S1120.23 1218.96 1224.91 1218.96S1336.13 1244.51 1445.73 1244.51S1560.23 1227.62 1666.55 1227.62L1458 1353 L-100 1353 Z"></animate>
  <animateTransform attributeName="transform" type="translate" dur="5.128205128205128s" begin="-3.988603988603989s" repeatCount="indefinite" values="0;10;0" calcMode="spline" keySplines="0.3 0 0.7 1;0.3 0 0.7 1"></animateTransform>
</path><path d="M-100 1233.18C21.17 1238.65 15.16 1297.61 129.87 1297.61S246.75 1226.96 359.74 1226.96S478.96 1247.31 589.61 1247.31S711.01 1243.26 819.48 1243.26S937.88 1268.94 1049.34 1268.94S1170.64 1235.38 1279.21 1235.38S1399.85 1300.53 1509.08 1300.53L1458 1353 L-100 1353 Z" fill="#88c535" stroke-width="0">
  <animate attributeName="d" dur="2.564102564102564s" repeatCount="indefinite" values="M-100 1233.18C21.17 1238.65 15.16 1297.61 129.87 1297.61S246.75 1226.96 359.74 1226.96S478.96 1247.31 589.61 1247.31S711.01 1243.26 819.48 1243.26S937.88 1268.94 1049.34 1268.94S1170.64 1235.38 1279.21 1235.38S1399.85 1300.53 1509.08 1300.53L1458 1353 L-100 1353 Z;M-100 1226.64C17.02 1217.09 19.19 1178.95 129.87 1178.95S246.22 1205.6 359.74 1205.6S474.98 1246.33 589.61 1246.33S704.84 1224.82 819.48 1224.82S938.47 1251.85 1049.34 1251.85S1169.98 1270.83 1279.21 1270.83S1396.32 1286.84 1509.08 1286.84L1458 1353 L-100 1353 Z;M-100 1233.18C21.17 1238.65 15.16 1297.61 129.87 1297.61S246.75 1226.96 359.74 1226.96S478.96 1247.31 589.61 1247.31S711.01 1243.26 819.48 1243.26S937.88 1268.94 1049.34 1268.94S1170.64 1235.38 1279.21 1235.38S1399.85 1300.53 1509.08 1300.53L1458 1353 L-100 1353 Z"></animate>
  <animateTransform attributeName="transform" type="translate" dur="2.564102564102564s" begin="-2.279202279202279s" repeatCount="indefinite" values="0;10;0" calcMode="spline" keySplines="0.3 0 0.7 1;0.3 0 0.7 1"></animateTransform>
</path></g>
</svg>