<?xml version="1.0" encoding="utf-8"?>
<svg xmlns="http://www.w3.org/2000/svg" xmlns:xlink="http://www.w3.org/1999/xlink" style="background: rgb(41, 41, 41); display: block; position: relative; shape-rendering: auto;" width="289" height="289" preserveAspectRatio="xMidYMid" viewBox="0 0 289 289"><g transform="scale(1.1300000000000001)"><defs>
  <filter id="pat-0.24404172736904695" x="-100%" y="-100%" width="300%" height="300%" color-interpolation-filters="sRGB">
    <feGaussianBlur in="SourceGraphic" stdDeviation="6.7700000000000005"></feGaussianBlur>
    <feComponentTransfer result="cutoff">
      <feFuncA type="linear" slope="60" intercept="-40"></feFuncA>
    </feComponentTransfer>
  </filter>
</defs><g style="isolation:isolate" filter="url(#pat-0.24404172736904695)"><g>
  <circle cx="-188.9338715244167" cy="63.02143125802678" r="12.281316676817042" fill="#346b21"></circle> <circle cx="67.0661284755833" cy="63.02143125802678" r="12.281316676817042" fill="#346b21"></circle> <circle cx="323.0661284755833" cy="63.02143125802678" r="12.281316676817042" fill="#346b21"></circle> <circle cx="-188.9338715244167" cy="319.0214312580268" r="12.281316676817042" fill="#346b21"></circle> <circle cx="67.0661284755833" cy="319.0214312580268" r="12.281316676817042" fill="#346b21"></circle> <circle cx="323.0661284755833" cy="319.0214312580268" r="12.281316676817042" fill="#346b21"></circle> <circle cx="-188.9338715244167" cy="575.0214312580267" r="12.281316676817042" fill="#346b21"></circle> <circle cx="67.0661284755833" cy="575.0214312580267" r="12.281316676817042" fill="#346b21"></circle> <circle cx="323.0661284755833" cy="575.0214312580267" r="12.281316676817042" fill="#346b21"></circle> <circle cx="-19.426995851059075" cy="94.73696410259987" r="17.740575438430934" fill="#346b21"></circle> <circle cx="236.57300414894092" cy="94.73696410259987" r="17.740575438430934" fill="#346b21"></circle> <circle cx="492.5730041489409" cy="94.73696410259987" r="17.740575438430934" fill="#346b21"></circle> <circle cx="-19.426995851059075" cy="350.73696410259987" r="17.740575438430934" fill="#346b21"></circle> <circle cx="236.57300414894092" cy="350.73696410259987" r="17.740575438430934" fill="#346b21"></circle> <circle cx="492.5730041489409" cy="350.73696410259987" r="17.740575438430934" fill="#346b21"></circle> <circle cx="-19.426995851059075" cy="606.7369641025998" r="17.740575438430934" fill="#346b21"></circle> <circle cx="236.57300414894092" cy="606.7369641025998" r="17.740575438430934" fill="#346b21"></circle> <circle cx="492.5730041489409" cy="606.7369641025998" r="17.740575438430934" fill="#346b21"></circle> <circle cx="-147.20548721462063" cy="226.9000230454676" r="6.4982627339169605" fill="#346b21"></circle> <circle cx="108.79451278537937" cy="226.9000230454676" r="6.4982627339169605" fill="#346b21"></circle> <circle cx="364.79451278537937" cy="226.9000230454676" r="6.4982627339169605" fill="#346b21"></circle> <circle cx="-147.20548721462063" cy="482.9000230454676" r="6.4982627339169605" fill="#346b21"></circle> <circle cx="108.79451278537937" cy="482.9000230454676" r="6.4982627339169605" fill="#346b21"></circle> <circle cx="364.79451278537937" cy="482.9000230454676" r="6.4982627339169605" fill="#346b21"></circle> <circle cx="-147.20548721462063" cy="738.9000230454676" r="6.4982627339169605" fill="#346b21"></circle> <circle cx="108.79451278537937" cy="738.9000230454676" r="6.4982627339169605" fill="#346b21"></circle> <circle cx="364.79451278537937" cy="738.9000230454676" r="6.4982627339169605" fill="#346b21"></circle> <circle cx="-28.03209330609809" cy="34.82913785834313" r="7.468940042289369" fill="#346b21"></circle> <circle cx="227.9679066939019" cy="34.82913785834313" r="7.468940042289369" fill="#346b21"></circle> <circle cx="483.9679066939019" cy="34.82913785834313" r="7.468940042289369" fill="#346b21"></circle> <circle cx="-28.03209330609809" cy="290.82913785834313" r="7.468940042289369" fill="#346b21"></circle> <circle cx="227.9679066939019" cy="290.82913785834313" r="7.468940042289369" fill="#346b21"></circle> <circle cx="483.9679066939019" cy="290.82913785834313" r="7.468940042289369" fill="#346b21"></circle> <circle cx="-28.03209330609809" cy="546.8291378583431" r="7.468940042289369" fill="#346b21"></circle> <circle cx="227.9679066939019" cy="546.8291378583431" r="7.468940042289369" fill="#346b21"></circle> <circle cx="483.9679066939019" cy="546.8291378583431" r="7.468940042289369" fill="#346b21"></circle> <circle cx="-140.4092584212476" cy="103.86312426352299" r="19.720052073038623" fill="#346b21"></circle> <circle cx="115.59074157875239" cy="103.86312426352299" r="19.720052073038623" fill="#346b21"></circle> <circle cx="371.5907415787524" cy="103.86312426352299" r="19.720052073038623" fill="#346b21"></circle> <circle cx="-140.4092584212476" cy="359.863124263523" r="19.720052073038623" fill="#346b21"></circle> <circle cx="115.59074157875239" cy="359.863124263523" r="19.720052073038623" fill="#346b21"></circle> <circle cx="371.5907415787524" cy="359.863124263523" r="19.720052073038623" fill="#346b21"></circle> <circle cx="-140.4092584212476" cy="615.863124263523" r="19.720052073038623" fill="#346b21"></circle> <circle cx="115.59074157875239" cy="615.863124263523" r="19.720052073038623" fill="#346b21"></circle> <circle cx="371.5907415787524" cy="615.863124263523" r="19.720052073038623" fill="#346b21"></circle> <circle cx="-187.7412750858008" cy="172.7015983835281" r="19.444058493376307" fill="#346b21"></circle> <circle cx="68.2587249141992" cy="172.7015983835281" r="19.444058493376307" fill="#346b21"></circle> <circle cx="324.2587249141992" cy="172.7015983835281" r="19.444058493376307" fill="#346b21"></circle> <circle cx="-187.7412750858008" cy="428.7015983835281" r="19.444058493376307" fill="#346b21"></circle> <circle cx="68.2587249141992" cy="428.7015983835281" r="19.444058493376307" fill="#346b21"></circle> <circle cx="324.2587249141992" cy="428.7015983835281" r="19.444058493376307" fill="#346b21"></circle> <circle cx="-187.7412750858008" cy="684.7015983835281" r="19.444058493376307" fill="#346b21"></circle> <circle cx="68.2587249141992" cy="684.7015983835281" r="19.444058493376307" fill="#346b21"></circle> <circle cx="324.2587249141992" cy="684.7015983835281" r="19.444058493376307" fill="#346b21"></circle> <circle cx="-127.24512758286818" cy="36.73679676256927" r="13.195851517994864" fill="#346b21"></circle> <circle cx="128.75487241713182" cy="36.73679676256927" r="13.195851517994864" fill="#346b21"></circle> <circle cx="384.7548724171318" cy="36.73679676256927" r="13.195851517994864" fill="#346b21"></circle> <circle cx="-127.24512758286818" cy="292.73679676256927" r="13.195851517994864" fill="#346b21"></circle> <circle cx="128.75487241713182" cy="292.73679676256927" r="13.195851517994864" fill="#346b21"></circle> <circle cx="384.7548724171318" cy="292.73679676256927" r="13.195851517994864" fill="#346b21"></circle> <circle cx="-127.24512758286818" cy="548.7367967625693" r="13.195851517994864" fill="#346b21"></circle> <circle cx="128.75487241713182" cy="548.7367967625693" r="13.195851517994864" fill="#346b21"></circle> <circle cx="384.7548724171318" cy="548.7367967625693" r="13.195851517994864" fill="#346b21"></circle> <circle cx="-234.16370677898703" cy="104.19549338822128" r="13.34036532619032" fill="#346b21"></circle> <circle cx="21.836293221012966" cy="104.19549338822128" r="13.34036532619032" fill="#346b21"></circle> <circle cx="277.83629322101297" cy="104.19549338822128" r="13.34036532619032" fill="#346b21"></circle> <circle cx="-234.16370677898703" cy="360.1954933882213" r="13.34036532619032" fill="#346b21"></circle> <circle cx="21.836293221012966" cy="360.1954933882213" r="13.34036532619032" fill="#346b21"></circle> <circle cx="277.83629322101297" cy="360.1954933882213" r="13.34036532619032" fill="#346b21"></circle> <circle cx="-234.16370677898703" cy="616.1954933882213" r="13.34036532619032" fill="#346b21"></circle> <circle cx="21.836293221012966" cy="616.1954933882213" r="13.34036532619032" fill="#346b21"></circle> <circle cx="277.83629322101297" cy="616.1954933882213" r="13.34036532619032" fill="#346b21"></circle> <circle cx="-239.22029002800105" cy="121.89752556831252" r="18.576705984521464" fill="#346b21"></circle> <circle cx="16.779709971998955" cy="121.89752556831252" r="18.576705984521464" fill="#346b21"></circle> <circle cx="272.77970997199895" cy="121.89752556831252" r="18.576705984521464" fill="#346b21"></circle> <circle cx="-239.22029002800105" cy="377.8975255683125" r="18.576705984521464" fill="#346b21"></circle> <circle cx="16.779709971998955" cy="377.8975255683125" r="18.576705984521464" fill="#346b21"></circle> <circle cx="272.77970997199895" cy="377.8975255683125" r="18.576705984521464" fill="#346b21"></circle> <circle cx="-239.22029002800105" cy="633.8975255683125" r="18.576705984521464" fill="#346b21"></circle> <circle cx="16.779709971998955" cy="633.8975255683125" r="18.576705984521464" fill="#346b21"></circle> <circle cx="272.77970997199895" cy="633.8975255683125" r="18.576705984521464" fill="#346b21"></circle> <circle cx="-84.79702566698944" cy="99.05085065167577" r="13.58169840378875" fill="#346b21"></circle> <circle cx="171.20297433301056" cy="99.05085065167577" r="13.58169840378875" fill="#346b21"></circle> <circle cx="427.20297433301056" cy="99.05085065167577" r="13.58169840378875" fill="#346b21"></circle> <circle cx="-84.79702566698944" cy="355.0508506516758" r="13.58169840378875" fill="#346b21"></circle> <circle cx="171.20297433301056" cy="355.0508506516758" r="13.58169840378875" fill="#346b21"></circle> <circle cx="427.20297433301056" cy="355.0508506516758" r="13.58169840378875" fill="#346b21"></circle> <circle cx="-84.79702566698944" cy="611.0508506516758" r="13.58169840378875" fill="#346b21"></circle> <circle cx="171.20297433301056" cy="611.0508506516758" r="13.58169840378875" fill="#346b21"></circle> <circle cx="427.20297433301056" cy="611.0508506516758" r="13.58169840378875" fill="#346b21"></circle> <circle cx="-128.2208179673699" cy="137.23842196070115" r="3.1316678038751107" fill="#346b21"></circle> <circle cx="127.7791820326301" cy="137.23842196070115" r="3.1316678038751107" fill="#346b21"></circle> <circle cx="383.7791820326301" cy="137.23842196070115" r="3.1316678038751107" fill="#346b21"></circle> <circle cx="-128.2208179673699" cy="393.23842196070115" r="3.1316678038751107" fill="#346b21"></circle> <circle cx="127.7791820326301" cy="393.23842196070115" r="3.1316678038751107" fill="#346b21"></circle> <circle cx="383.7791820326301" cy="393.23842196070115" r="3.1316678038751107" fill="#346b21"></circle> <circle cx="-128.2208179673699" cy="649.2384219607011" r="3.1316678038751107" fill="#346b21"></circle> <circle cx="127.7791820326301" cy="649.2384219607011" r="3.1316678038751107" fill="#346b21"></circle> <circle cx="383.7791820326301" cy="649.2384219607011" r="3.1316678038751107" fill="#346b21"></circle> <circle cx="-137.80655313193517" cy="5.967695899760258" r="7.6697106489137" fill="#346b21"></circle> <circle cx="118.19344686806483" cy="5.967695899760258" r="7.6697106489137" fill="#346b21"></circle> <circle cx="374.1934468680648" cy="5.967695899760258" r="7.6697106489137" fill="#346b21"></circle> <circle cx="-137.80655313193517" cy="261.96769589976026" r="7.6697106489137" fill="#346b21"></circle> <circle cx="118.19344686806483" cy="261.96769589976026" r="7.6697106489137" fill="#346b21"></circle> <circle cx="374.1934468680648" cy="261.96769589976026" r="7.6697106489137" fill="#346b21"></circle> <circle cx="-137.80655313193517" cy="517.9676958997602" r="7.6697106489137" fill="#346b21"></circle> <circle cx="118.19344686806483" cy="517.9676958997602" r="7.6697106489137" fill="#346b21"></circle> <circle cx="374.1934468680648" cy="517.9676958997602" r="7.6697106489137" fill="#346b21"></circle> <circle cx="-178.43191040209888" cy="-6.535162008181317" r="12.937250616584613" fill="#346b21"></circle> <circle cx="77.56808959790112" cy="-6.535162008181317" r="12.937250616584613" fill="#346b21"></circle> <circle cx="333.5680895979011" cy="-6.535162008181317" r="12.937250616584613" fill="#346b21"></circle> <circle cx="-178.43191040209888" cy="249.46483799181868" r="12.937250616584613" fill="#346b21"></circle> <circle cx="77.56808959790112" cy="249.46483799181868" r="12.937250616584613" fill="#346b21"></circle> <circle cx="333.5680895979011" cy="249.46483799181868" r="12.937250616584613" fill="#346b21"></circle> <circle cx="-178.43191040209888" cy="505.4648379918187" r="12.937250616584613" fill="#346b21"></circle> <circle cx="77.56808959790112" cy="505.4648379918187" r="12.937250616584613" fill="#346b21"></circle> <circle cx="333.5680895979011" cy="505.4648379918187" r="12.937250616584613" fill="#346b21"></circle> <circle cx="-178.43191040209888" cy="761.4648379918187" r="12.937250616584613" fill="#346b21"></circle> <circle cx="77.56808959790112" cy="761.4648379918187" r="12.937250616584613" fill="#346b21"></circle> <circle cx="333.5680895979011" cy="761.4648379918187" r="12.937250616584613" fill="#346b21"></circle> <circle cx="-116.99914610996649" cy="10.556639043922075" r="2.819913885537401" fill="#346b21"></circle> <circle cx="139.0008538900335" cy="10.556639043922075" r="2.819913885537401" fill="#346b21"></circle> <circle cx="395.0008538900335" cy="10.556639043922075" r="2.819913885537401" fill="#346b21"></circle> <circle cx="-116.99914610996649" cy="266.5566390439221" r="2.819913885537401" fill="#346b21"></circle> <circle cx="139.0008538900335" cy="266.5566390439221" r="2.819913885537401" fill="#346b21"></circle> <circle cx="395.0008538900335" cy="266.5566390439221" r="2.819913885537401" fill="#346b21"></circle> <circle cx="-116.99914610996649" cy="522.5566390439221" r="2.819913885537401" fill="#346b21"></circle> <circle cx="139.0008538900335" cy="522.5566390439221" r="2.819913885537401" fill="#346b21"></circle> <circle cx="395.0008538900335" cy="522.5566390439221" r="2.819913885537401" fill="#346b21"></circle> 
  <animateTransform attributeName="transform" type="translate" dur="3.3333333333333335s" repeatCount="indefinite" keyTimes="0;1" values="0 0;0 -256"></animateTransform>
</g><g>
  <circle cx="-151.47011908144276" cy="127.8196529874088" r="17.089611853752352" fill="#94d137"></circle> <circle cx="104.52988091855724" cy="127.8196529874088" r="17.089611853752352" fill="#94d137"></circle> <circle cx="360.52988091855724" cy="127.8196529874088" r="17.089611853752352" fill="#94d137"></circle> <circle cx="-151.47011908144276" cy="383.8196529874088" r="17.089611853752352" fill="#94d137"></circle> <circle cx="104.52988091855724" cy="383.8196529874088" r="17.089611853752352" fill="#94d137"></circle> <circle cx="360.52988091855724" cy="383.8196529874088" r="17.089611853752352" fill="#94d137"></circle> <circle cx="-151.47011908144276" cy="639.8196529874087" r="17.089611853752352" fill="#94d137"></circle> <circle cx="104.52988091855724" cy="639.8196529874087" r="17.089611853752352" fill="#94d137"></circle> <circle cx="360.52988091855724" cy="639.8196529874087" r="17.089611853752352" fill="#94d137"></circle> <circle cx="-155.11234891138452" cy="151.32776700458334" r="15.170621089398388" fill="#94d137"></circle> <circle cx="100.88765108861548" cy="151.32776700458334" r="15.170621089398388" fill="#94d137"></circle> <circle cx="356.8876510886155" cy="151.32776700458334" r="15.170621089398388" fill="#94d137"></circle> <circle cx="-155.11234891138452" cy="407.32776700458334" r="15.170621089398388" fill="#94d137"></circle> <circle cx="100.88765108861548" cy="407.32776700458334" r="15.170621089398388" fill="#94d137"></circle> <circle cx="356.8876510886155" cy="407.32776700458334" r="15.170621089398388" fill="#94d137"></circle> <circle cx="-155.11234891138452" cy="663.3277670045834" r="15.170621089398388" fill="#94d137"></circle> <circle cx="100.88765108861548" cy="663.3277670045834" r="15.170621089398388" fill="#94d137"></circle> <circle cx="356.8876510886155" cy="663.3277670045834" r="15.170621089398388" fill="#94d137"></circle> <circle cx="-251.82175343909807" cy="63.96930189100709" r="21.20453029916834" fill="#94d137"></circle> <circle cx="4.1782465609019255" cy="63.96930189100709" r="21.20453029916834" fill="#94d137"></circle> <circle cx="260.1782465609019" cy="63.96930189100709" r="21.20453029916834" fill="#94d137"></circle> <circle cx="-251.82175343909807" cy="319.9693018910071" r="21.20453029916834" fill="#94d137"></circle> <circle cx="4.1782465609019255" cy="319.9693018910071" r="21.20453029916834" fill="#94d137"></circle> <circle cx="260.1782465609019" cy="319.9693018910071" r="21.20453029916834" fill="#94d137"></circle> <circle cx="-251.82175343909807" cy="575.969301891007" r="21.20453029916834" fill="#94d137"></circle> <circle cx="4.1782465609019255" cy="575.969301891007" r="21.20453029916834" fill="#94d137"></circle> <circle cx="260.1782465609019" cy="575.969301891007" r="21.20453029916834" fill="#94d137"></circle> <circle cx="-87.1115512747665" cy="107.00411912824376" r="23.231094638166635" fill="#94d137"></circle> <circle cx="168.8884487252335" cy="107.00411912824376" r="23.231094638166635" fill="#94d137"></circle> <circle cx="424.8884487252335" cy="107.00411912824376" r="23.231094638166635" fill="#94d137"></circle> <circle cx="-87.1115512747665" cy="363.00411912824376" r="23.231094638166635" fill="#94d137"></circle> <circle cx="168.8884487252335" cy="363.00411912824376" r="23.231094638166635" fill="#94d137"></circle> <circle cx="424.8884487252335" cy="363.00411912824376" r="23.231094638166635" fill="#94d137"></circle> <circle cx="-87.1115512747665" cy="619.0041191282437" r="23.231094638166635" fill="#94d137"></circle> <circle cx="168.8884487252335" cy="619.0041191282437" r="23.231094638166635" fill="#94d137"></circle> <circle cx="424.8884487252335" cy="619.0041191282437" r="23.231094638166635" fill="#94d137"></circle> <circle cx="-162.98791627390614" cy="39.36556114503054" r="18.939976372920295" fill="#94d137"></circle> <circle cx="93.01208372609386" cy="39.36556114503054" r="18.939976372920295" fill="#94d137"></circle> <circle cx="349.01208372609386" cy="39.36556114503054" r="18.939976372920295" fill="#94d137"></circle> <circle cx="-162.98791627390614" cy="295.36556114503054" r="18.939976372920295" fill="#94d137"></circle> <circle cx="93.01208372609386" cy="295.36556114503054" r="18.939976372920295" fill="#94d137"></circle> <circle cx="349.01208372609386" cy="295.36556114503054" r="18.939976372920295" fill="#94d137"></circle> <circle cx="-162.98791627390614" cy="551.3655611450306" r="18.939976372920295" fill="#94d137"></circle> <circle cx="93.01208372609386" cy="551.3655611450306" r="18.939976372920295" fill="#94d137"></circle> <circle cx="349.01208372609386" cy="551.3655611450306" r="18.939976372920295" fill="#94d137"></circle> <circle cx="-146.3160384881562" cy="154.8508371601945" r="18.310088468566526" fill="#94d137"></circle> <circle cx="109.68396151184379" cy="154.8508371601945" r="18.310088468566526" fill="#94d137"></circle> <circle cx="365.6839615118438" cy="154.8508371601945" r="18.310088468566526" fill="#94d137"></circle> <circle cx="-146.3160384881562" cy="410.8508371601945" r="18.310088468566526" fill="#94d137"></circle> <circle cx="109.68396151184379" cy="410.8508371601945" r="18.310088468566526" fill="#94d137"></circle> <circle cx="365.6839615118438" cy="410.8508371601945" r="18.310088468566526" fill="#94d137"></circle> <circle cx="-146.3160384881562" cy="666.8508371601945" r="18.310088468566526" fill="#94d137"></circle> <circle cx="109.68396151184379" cy="666.8508371601945" r="18.310088468566526" fill="#94d137"></circle> <circle cx="365.6839615118438" cy="666.8508371601945" r="18.310088468566526" fill="#94d137"></circle> <circle cx="-140.80481799563717" cy="4.172351025926162" r="20.866646597226083" fill="#94d137"></circle> <circle cx="115.19518200436283" cy="4.172351025926162" r="20.866646597226083" fill="#94d137"></circle> <circle cx="371.19518200436283" cy="4.172351025926162" r="20.866646597226083" fill="#94d137"></circle> <circle cx="-140.80481799563717" cy="260.17235102592616" r="20.866646597226083" fill="#94d137"></circle> <circle cx="115.19518200436283" cy="260.17235102592616" r="20.866646597226083" fill="#94d137"></circle> <circle cx="371.19518200436283" cy="260.17235102592616" r="20.866646597226083" fill="#94d137"></circle> <circle cx="-140.80481799563717" cy="516.1723510259262" r="20.866646597226083" fill="#94d137"></circle> <circle cx="115.19518200436283" cy="516.1723510259262" r="20.866646597226083" fill="#94d137"></circle> <circle cx="371.19518200436283" cy="516.1723510259262" r="20.866646597226083" fill="#94d137"></circle> <circle cx="-171.88251523934065" cy="134.20871968432925" r="21.252110664686832" fill="#94d137"></circle> <circle cx="84.11748476065935" cy="134.20871968432925" r="21.252110664686832" fill="#94d137"></circle> <circle cx="340.11748476065935" cy="134.20871968432925" r="21.252110664686832" fill="#94d137"></circle> <circle cx="-171.88251523934065" cy="390.20871968432925" r="21.252110664686832" fill="#94d137"></circle> <circle cx="84.11748476065935" cy="390.20871968432925" r="21.252110664686832" fill="#94d137"></circle> <circle cx="340.11748476065935" cy="390.20871968432925" r="21.252110664686832" fill="#94d137"></circle> <circle cx="-171.88251523934065" cy="646.2087196843293" r="21.252110664686832" fill="#94d137"></circle> <circle cx="84.11748476065935" cy="646.2087196843293" r="21.252110664686832" fill="#94d137"></circle> <circle cx="340.11748476065935" cy="646.2087196843293" r="21.252110664686832" fill="#94d137"></circle> <circle cx="-7.617790215103184" cy="241.95693303567265" r="3.5444227358418843" fill="#94d137"></circle> <circle cx="248.38220978489682" cy="241.95693303567265" r="3.5444227358418843" fill="#94d137"></circle> <circle cx="504.3822097848968" cy="241.95693303567265" r="3.5444227358418843" fill="#94d137"></circle> <circle cx="-7.617790215103184" cy="497.95693303567265" r="3.5444227358418843" fill="#94d137"></circle> <circle cx="248.38220978489682" cy="497.95693303567265" r="3.5444227358418843" fill="#94d137"></circle> <circle cx="504.3822097848968" cy="497.95693303567265" r="3.5444227358418843" fill="#94d137"></circle> <circle cx="-7.617790215103184" cy="753.9569330356726" r="3.5444227358418843" fill="#94d137"></circle> <circle cx="248.38220978489682" cy="753.9569330356726" r="3.5444227358418843" fill="#94d137"></circle> <circle cx="504.3822097848968" cy="753.9569330356726" r="3.5444227358418843" fill="#94d137"></circle> <circle cx="-182.89145866708947" cy="144.0597645881711" r="7.90844339148545" fill="#94d137"></circle> <circle cx="73.10854133291053" cy="144.0597645881711" r="7.90844339148545" fill="#94d137"></circle> <circle cx="329.10854133291053" cy="144.0597645881711" r="7.90844339148545" fill="#94d137"></circle> <circle cx="-182.89145866708947" cy="400.0597645881711" r="7.90844339148545" fill="#94d137"></circle> <circle cx="73.10854133291053" cy="400.0597645881711" r="7.90844339148545" fill="#94d137"></circle> <circle cx="329.10854133291053" cy="400.0597645881711" r="7.90844339148545" fill="#94d137"></circle> <circle cx="-182.89145866708947" cy="656.0597645881711" r="7.90844339148545" fill="#94d137"></circle> <circle cx="73.10854133291053" cy="656.0597645881711" r="7.90844339148545" fill="#94d137"></circle> <circle cx="329.10854133291053" cy="656.0597645881711" r="7.90844339148545" fill="#94d137"></circle> <circle cx="-208.67396126077506" cy="-4.326299460510199" r="15.854761501315707" fill="#94d137"></circle> <circle cx="47.32603873922494" cy="-4.326299460510199" r="15.854761501315707" fill="#94d137"></circle> <circle cx="303.32603873922494" cy="-4.326299460510199" r="15.854761501315707" fill="#94d137"></circle> <circle cx="-208.67396126077506" cy="251.6737005394898" r="15.854761501315707" fill="#94d137"></circle> <circle cx="47.32603873922494" cy="251.6737005394898" r="15.854761501315707" fill="#94d137"></circle> <circle cx="303.32603873922494" cy="251.6737005394898" r="15.854761501315707" fill="#94d137"></circle> <circle cx="-208.67396126077506" cy="507.6737005394898" r="15.854761501315707" fill="#94d137"></circle> <circle cx="47.32603873922494" cy="507.6737005394898" r="15.854761501315707" fill="#94d137"></circle> <circle cx="303.32603873922494" cy="507.6737005394898" r="15.854761501315707" fill="#94d137"></circle> <circle cx="-208.67396126077506" cy="763.6737005394898" r="15.854761501315707" fill="#94d137"></circle> <circle cx="47.32603873922494" cy="763.6737005394898" r="15.854761501315707" fill="#94d137"></circle> <circle cx="303.32603873922494" cy="763.6737005394898" r="15.854761501315707" fill="#94d137"></circle> <circle cx="-34.235293790150536" cy="210.29227293849118" r="18.248245621039327" fill="#94d137"></circle> <circle cx="221.76470620984946" cy="210.29227293849118" r="18.248245621039327" fill="#94d137"></circle> <circle cx="477.76470620984946" cy="210.29227293849118" r="18.248245621039327" fill="#94d137"></circle> <circle cx="-34.235293790150536" cy="466.2922729384912" r="18.248245621039327" fill="#94d137"></circle> <circle cx="221.76470620984946" cy="466.2922729384912" r="18.248245621039327" fill="#94d137"></circle> <circle cx="477.76470620984946" cy="466.2922729384912" r="18.248245621039327" fill="#94d137"></circle> <circle cx="-34.235293790150536" cy="722.2922729384911" r="18.248245621039327" fill="#94d137"></circle> <circle cx="221.76470620984946" cy="722.2922729384911" r="18.248245621039327" fill="#94d137"></circle> <circle cx="477.76470620984946" cy="722.2922729384911" r="18.248245621039327" fill="#94d137"></circle> <circle cx="-201.07856138732376" cy="65.58911272188556" r="20.391729926321542" fill="#94d137"></circle> <circle cx="54.92143861267624" cy="65.58911272188556" r="20.391729926321542" fill="#94d137"></circle> <circle cx="310.92143861267624" cy="65.58911272188556" r="20.391729926321542" fill="#94d137"></circle> <circle cx="-201.07856138732376" cy="321.58911272188556" r="20.391729926321542" fill="#94d137"></circle> <circle cx="54.92143861267624" cy="321.58911272188556" r="20.391729926321542" fill="#94d137"></circle> <circle cx="310.92143861267624" cy="321.58911272188556" r="20.391729926321542" fill="#94d137"></circle> <circle cx="-201.07856138732376" cy="577.5891127218856" r="20.391729926321542" fill="#94d137"></circle> <circle cx="54.92143861267624" cy="577.5891127218856" r="20.391729926321542" fill="#94d137"></circle> <circle cx="310.92143861267624" cy="577.5891127218856" r="20.391729926321542" fill="#94d137"></circle> 
  <animateTransform attributeName="transform" type="translate" dur="1.6666666666666667s" repeatCount="indefinite" keyTimes="0;1" values="0 0;0 -256"></animateTransform>
</g><g>
  <circle cx="-76.33357583653742" cy="187.4840593021121" r="10.972702915912564" fill="#b3e46e"></circle> <circle cx="179.66642416346258" cy="187.4840593021121" r="10.972702915912564" fill="#b3e46e"></circle> <circle cx="435.6664241634626" cy="187.4840593021121" r="10.972702915912564" fill="#b3e46e"></circle> <circle cx="-76.33357583653742" cy="443.4840593021121" r="10.972702915912564" fill="#b3e46e"></circle> <circle cx="179.66642416346258" cy="443.4840593021121" r="10.972702915912564" fill="#b3e46e"></circle> <circle cx="435.6664241634626" cy="443.4840593021121" r="10.972702915912564" fill="#b3e46e"></circle> <circle cx="-76.33357583653742" cy="699.4840593021121" r="10.972702915912564" fill="#b3e46e"></circle> <circle cx="179.66642416346258" cy="699.4840593021121" r="10.972702915912564" fill="#b3e46e"></circle> <circle cx="435.6664241634626" cy="699.4840593021121" r="10.972702915912564" fill="#b3e46e"></circle> <circle cx="-114.52052281213616" cy="142.1732668072081" r="12.762285066548138" fill="#b3e46e"></circle> <circle cx="141.47947718786384" cy="142.1732668072081" r="12.762285066548138" fill="#b3e46e"></circle> <circle cx="397.47947718786384" cy="142.1732668072081" r="12.762285066548138" fill="#b3e46e"></circle> <circle cx="-114.52052281213616" cy="398.1732668072081" r="12.762285066548138" fill="#b3e46e"></circle> <circle cx="141.47947718786384" cy="398.1732668072081" r="12.762285066548138" fill="#b3e46e"></circle> <circle cx="397.47947718786384" cy="398.1732668072081" r="12.762285066548138" fill="#b3e46e"></circle> <circle cx="-114.52052281213616" cy="654.1732668072082" r="12.762285066548138" fill="#b3e46e"></circle> <circle cx="141.47947718786384" cy="654.1732668072082" r="12.762285066548138" fill="#b3e46e"></circle> <circle cx="397.47947718786384" cy="654.1732668072082" r="12.762285066548138" fill="#b3e46e"></circle> <circle cx="-255.84531041425151" cy="79.47411141290928" r="22.498762749172474" fill="#b3e46e"></circle> <circle cx="0.15468958574848557" cy="79.47411141290928" r="22.498762749172474" fill="#b3e46e"></circle> <circle cx="256.1546895857485" cy="79.47411141290928" r="22.498762749172474" fill="#b3e46e"></circle> <circle cx="-255.84531041425151" cy="335.4741114129093" r="22.498762749172474" fill="#b3e46e"></circle> <circle cx="0.15468958574848557" cy="335.4741114129093" r="22.498762749172474" fill="#b3e46e"></circle> <circle cx="256.1546895857485" cy="335.4741114129093" r="22.498762749172474" fill="#b3e46e"></circle> <circle cx="-255.84531041425151" cy="591.4741114129092" r="22.498762749172474" fill="#b3e46e"></circle> <circle cx="0.15468958574848557" cy="591.4741114129092" r="22.498762749172474" fill="#b3e46e"></circle> <circle cx="256.1546895857485" cy="591.4741114129092" r="22.498762749172474" fill="#b3e46e"></circle> <circle cx="-160.94226666951272" cy="215.30537248033528" r="19.706597379411885" fill="#b3e46e"></circle> <circle cx="95.05773333048728" cy="215.30537248033528" r="19.706597379411885" fill="#b3e46e"></circle> <circle cx="351.0577333304873" cy="215.30537248033528" r="19.706597379411885" fill="#b3e46e"></circle> <circle cx="-160.94226666951272" cy="471.3053724803353" r="19.706597379411885" fill="#b3e46e"></circle> <circle cx="95.05773333048728" cy="471.3053724803353" r="19.706597379411885" fill="#b3e46e"></circle> <circle cx="351.0577333304873" cy="471.3053724803353" r="19.706597379411885" fill="#b3e46e"></circle> <circle cx="-160.94226666951272" cy="727.3053724803353" r="19.706597379411885" fill="#b3e46e"></circle> <circle cx="95.05773333048728" cy="727.3053724803353" r="19.706597379411885" fill="#b3e46e"></circle> <circle cx="351.0577333304873" cy="727.3053724803353" r="19.706597379411885" fill="#b3e46e"></circle> <circle cx="-147.30406021008747" cy="176.50543520320372" r="4.105302861024442" fill="#b3e46e"></circle> <circle cx="108.69593978991253" cy="176.50543520320372" r="4.105302861024442" fill="#b3e46e"></circle> <circle cx="364.69593978991253" cy="176.50543520320372" r="4.105302861024442" fill="#b3e46e"></circle> <circle cx="-147.30406021008747" cy="432.5054352032037" r="4.105302861024442" fill="#b3e46e"></circle> <circle cx="108.69593978991253" cy="432.5054352032037" r="4.105302861024442" fill="#b3e46e"></circle> <circle cx="364.69593978991253" cy="432.5054352032037" r="4.105302861024442" fill="#b3e46e"></circle> <circle cx="-147.30406021008747" cy="688.5054352032037" r="4.105302861024442" fill="#b3e46e"></circle> <circle cx="108.69593978991253" cy="688.5054352032037" r="4.105302861024442" fill="#b3e46e"></circle> <circle cx="364.69593978991253" cy="688.5054352032037" r="4.105302861024442" fill="#b3e46e"></circle> <circle cx="-255.48592709702137" cy="215.27802772061733" r="23.64171384894859" fill="#b3e46e"></circle> <circle cx="0.5140729029786257" cy="215.27802772061733" r="23.64171384894859" fill="#b3e46e"></circle> <circle cx="256.5140729029786" cy="215.27802772061733" r="23.64171384894859" fill="#b3e46e"></circle> <circle cx="-255.48592709702137" cy="471.27802772061733" r="23.64171384894859" fill="#b3e46e"></circle> <circle cx="0.5140729029786257" cy="471.27802772061733" r="23.64171384894859" fill="#b3e46e"></circle> <circle cx="256.5140729029786" cy="471.27802772061733" r="23.64171384894859" fill="#b3e46e"></circle> <circle cx="-255.48592709702137" cy="727.2780277206173" r="23.64171384894859" fill="#b3e46e"></circle> <circle cx="0.5140729029786257" cy="727.2780277206173" r="23.64171384894859" fill="#b3e46e"></circle> <circle cx="256.5140729029786" cy="727.2780277206173" r="23.64171384894859" fill="#b3e46e"></circle> <circle cx="-248.21088044917406" cy="45.33361720051897" r="14.554198368454664" fill="#b3e46e"></circle> <circle cx="7.789119550825944" cy="45.33361720051897" r="14.554198368454664" fill="#b3e46e"></circle> <circle cx="263.78911955082594" cy="45.33361720051897" r="14.554198368454664" fill="#b3e46e"></circle> <circle cx="-248.21088044917406" cy="301.333617200519" r="14.554198368454664" fill="#b3e46e"></circle> <circle cx="7.789119550825944" cy="301.333617200519" r="14.554198368454664" fill="#b3e46e"></circle> <circle cx="263.78911955082594" cy="301.333617200519" r="14.554198368454664" fill="#b3e46e"></circle> <circle cx="-248.21088044917406" cy="557.333617200519" r="14.554198368454664" fill="#b3e46e"></circle> <circle cx="7.789119550825944" cy="557.333617200519" r="14.554198368454664" fill="#b3e46e"></circle> <circle cx="263.78911955082594" cy="557.333617200519" r="14.554198368454664" fill="#b3e46e"></circle> <circle cx="-123.16894903343348" cy="238.51237589080102" r="12.465544224797348" fill="#b3e46e"></circle> <circle cx="132.83105096656652" cy="238.51237589080102" r="12.465544224797348" fill="#b3e46e"></circle> <circle cx="388.8310509665665" cy="238.51237589080102" r="12.465544224797348" fill="#b3e46e"></circle> <circle cx="-123.16894903343348" cy="494.512375890801" r="12.465544224797348" fill="#b3e46e"></circle> <circle cx="132.83105096656652" cy="494.512375890801" r="12.465544224797348" fill="#b3e46e"></circle> <circle cx="388.8310509665665" cy="494.512375890801" r="12.465544224797348" fill="#b3e46e"></circle> <circle cx="-123.16894903343348" cy="750.512375890801" r="12.465544224797348" fill="#b3e46e"></circle> <circle cx="132.83105096656652" cy="750.512375890801" r="12.465544224797348" fill="#b3e46e"></circle> <circle cx="388.8310509665665" cy="750.512375890801" r="12.465544224797348" fill="#b3e46e"></circle> <circle cx="-45.082972367541345" cy="53.244748785727836" r="14.353593024741095" fill="#b3e46e"></circle> <circle cx="210.91702763245866" cy="53.244748785727836" r="14.353593024741095" fill="#b3e46e"></circle> <circle cx="466.91702763245866" cy="53.244748785727836" r="14.353593024741095" fill="#b3e46e"></circle> <circle cx="-45.082972367541345" cy="309.24474878572784" r="14.353593024741095" fill="#b3e46e"></circle> <circle cx="210.91702763245866" cy="309.24474878572784" r="14.353593024741095" fill="#b3e46e"></circle> <circle cx="466.91702763245866" cy="309.24474878572784" r="14.353593024741095" fill="#b3e46e"></circle> <circle cx="-45.082972367541345" cy="565.2447487857278" r="14.353593024741095" fill="#b3e46e"></circle> <circle cx="210.91702763245866" cy="565.2447487857278" r="14.353593024741095" fill="#b3e46e"></circle> <circle cx="466.91702763245866" cy="565.2447487857278" r="14.353593024741095" fill="#b3e46e"></circle> <circle cx="-79.06017690813138" cy="41.75462798017418" r="11.449012706493932" fill="#b3e46e"></circle> <circle cx="176.93982309186862" cy="41.75462798017418" r="11.449012706493932" fill="#b3e46e"></circle> <circle cx="432.9398230918686" cy="41.75462798017418" r="11.449012706493932" fill="#b3e46e"></circle> <circle cx="-79.06017690813138" cy="297.7546279801742" r="11.449012706493932" fill="#b3e46e"></circle> <circle cx="176.93982309186862" cy="297.7546279801742" r="11.449012706493932" fill="#b3e46e"></circle> <circle cx="432.9398230918686" cy="297.7546279801742" r="11.449012706493932" fill="#b3e46e"></circle> <circle cx="-79.06017690813138" cy="553.7546279801742" r="11.449012706493932" fill="#b3e46e"></circle> <circle cx="176.93982309186862" cy="553.7546279801742" r="11.449012706493932" fill="#b3e46e"></circle> <circle cx="432.9398230918686" cy="553.7546279801742" r="11.449012706493932" fill="#b3e46e"></circle> <circle cx="-143.3105722364184" cy="173.58891266314487" r="3.2200649500834384" fill="#b3e46e"></circle> <circle cx="112.68942776358159" cy="173.58891266314487" r="3.2200649500834384" fill="#b3e46e"></circle> <circle cx="368.6894277635816" cy="173.58891266314487" r="3.2200649500834384" fill="#b3e46e"></circle> <circle cx="-143.3105722364184" cy="429.58891266314487" r="3.2200649500834384" fill="#b3e46e"></circle> <circle cx="112.68942776358159" cy="429.58891266314487" r="3.2200649500834384" fill="#b3e46e"></circle> <circle cx="368.6894277635816" cy="429.58891266314487" r="3.2200649500834384" fill="#b3e46e"></circle> <circle cx="-143.3105722364184" cy="685.5889126631448" r="3.2200649500834384" fill="#b3e46e"></circle> <circle cx="112.68942776358159" cy="685.5889126631448" r="3.2200649500834384" fill="#b3e46e"></circle> <circle cx="368.6894277635816" cy="685.5889126631448" r="3.2200649500834384" fill="#b3e46e"></circle> <circle cx="-235.51509145060805" cy="30.213492363949626" r="12.817377195310634" fill="#b3e46e"></circle> <circle cx="20.484908549391946" cy="30.213492363949626" r="12.817377195310634" fill="#b3e46e"></circle> <circle cx="276.48490854939195" cy="30.213492363949626" r="12.817377195310634" fill="#b3e46e"></circle> <circle cx="-235.51509145060805" cy="286.2134923639496" r="12.817377195310634" fill="#b3e46e"></circle> <circle cx="20.484908549391946" cy="286.2134923639496" r="12.817377195310634" fill="#b3e46e"></circle> <circle cx="276.48490854939195" cy="286.2134923639496" r="12.817377195310634" fill="#b3e46e"></circle> <circle cx="-235.51509145060805" cy="542.2134923639496" r="12.817377195310634" fill="#b3e46e"></circle> <circle cx="20.484908549391946" cy="542.2134923639496" r="12.817377195310634" fill="#b3e46e"></circle> <circle cx="276.48490854939195" cy="542.2134923639496" r="12.817377195310634" fill="#b3e46e"></circle> <circle cx="-4.438799178874206" cy="2.7517145743511833" r="12.149812097602002" fill="#b3e46e"></circle> <circle cx="251.5612008211258" cy="2.7517145743511833" r="12.149812097602002" fill="#b3e46e"></circle> <circle cx="507.5612008211258" cy="2.7517145743511833" r="12.149812097602002" fill="#b3e46e"></circle> <circle cx="-4.438799178874206" cy="258.7517145743512" r="12.149812097602002" fill="#b3e46e"></circle> <circle cx="251.5612008211258" cy="258.7517145743512" r="12.149812097602002" fill="#b3e46e"></circle> <circle cx="507.5612008211258" cy="258.7517145743512" r="12.149812097602002" fill="#b3e46e"></circle> <circle cx="-4.438799178874206" cy="514.7517145743511" r="12.149812097602002" fill="#b3e46e"></circle> <circle cx="251.5612008211258" cy="514.7517145743511" r="12.149812097602002" fill="#b3e46e"></circle> <circle cx="507.5612008211258" cy="514.7517145743511" r="12.149812097602002" fill="#b3e46e"></circle> 
  <animateTransform attributeName="transform" type="translate" dur="1.1111111111111112s" repeatCount="indefinite" keyTimes="0;1" values="0 0;0 -256"></animateTransform>
</g></g></g></svg>