<?xml version="1.0" encoding="utf-8"?>
<svg xmlns="http://www.w3.org/2000/svg" xmlns:xlink="http://www.w3.org/1999/xlink" style="margin: auto; background: rgb(41, 41, 41); display: block; z-index: 1; position: relative; shape-rendering: auto;" width="3000" height="1425" preserveAspectRatio="xMidYMid" viewBox="0 0 3000 1425">
<g transform="translate(1500,712.5) scale(1,1) translate(-1500,-712.5)"><path d="M-100 1170.95C12.35 1167.3 11.23 1140.92 113.33 1140.92S223.98 1107.32 326.67 1107.32S440.71 1157.4 540 1157.4S648.23 1153.59 753.33 1153.59S861.2 1123.29 966.67 1123.29S1078.58 1141.7 1180 1141.7S1294.04 1119.8 1393.33 1119.8S1502.56 1153.32 1606.67 1153.32S1714.63 1150.8 1820 1150.8S1926.9 1139.86 2033.33 1139.86S2141.23 1109.61 2246.67 1109.61S2357.67 1146.9 2460 1146.9S2572.55 1100.05 2673.33 1100.05S2785.05 1170.39 2886.67 1170.39S2994.83 1114.74 3100 1114.74S3213.57 1151.88 3313.33 1151.88L3100 1425 L-100 1425 Z" fill="#346b21" stroke-width="0">
  <animate attributeName="d" dur="23.076923076923077s" repeatCount="indefinite" values="M-100 1170.95C12.35 1167.3 11.23 1140.92 113.33 1140.92S223.98 1107.32 326.67 1107.32S440.71 1157.4 540 1157.4S648.23 1153.59 753.33 1153.59S861.2 1123.29 966.67 1123.29S1078.58 1141.7 1180 1141.7S1294.04 1119.8 1393.33 1119.8S1502.56 1153.32 1606.67 1153.32S1714.63 1150.8 1820 1150.8S1926.9 1139.86 2033.33 1139.86S2141.23 1109.61 2246.67 1109.61S2357.67 1146.9 2460 1146.9S2572.55 1100.05 2673.33 1100.05S2785.05 1170.39 2886.67 1170.39S2994.83 1114.74 3100 1114.74S3213.57 1151.88 3313.33 1151.88L3100 1425 L-100 1425 Z;M-100 1140.21C13.76 1126.72 9.77 1124.92 113.33 1124.92S226.55 1125.45 326.67 1125.45S440.41 1161.56 540 1161.56S650.54 1109.15 753.33 1109.15S866.7 1137.99 966.67 1137.99S1078.11 1170.89 1180 1170.89S1294.25 1101.38 1393.33 1101.38S1500.6 1159.02 1606.67 1159.02S1715.66 1139.98 1820 1139.98S1931.4 1149.71 2033.33 1149.71S2144.27 1133.38 2246.67 1133.38S2356.21 1168.78 2460 1168.78S2567.22 1105.27 2673.33 1105.27S2781.89 1114.38 2886.67 1114.38S2995.15 1149.67 3100 1149.67S3213.92 1105.64 3313.33 1105.64L3100 1425 L-100 1425 Z;M-100 1170.95C12.35 1167.3 11.23 1140.92 113.33 1140.92S223.98 1107.32 326.67 1107.32S440.71 1157.4 540 1157.4S648.23 1153.59 753.33 1153.59S861.2 1123.29 966.67 1123.29S1078.58 1141.7 1180 1141.7S1294.04 1119.8 1393.33 1119.8S1502.56 1153.32 1606.67 1153.32S1714.63 1150.8 1820 1150.8S1926.9 1139.86 2033.33 1139.86S2141.23 1109.61 2246.67 1109.61S2357.67 1146.9 2460 1146.9S2572.55 1100.05 2673.33 1100.05S2785.05 1170.39 2886.67 1170.39S2994.83 1114.74 3100 1114.74S3213.57 1151.88 3313.33 1151.88L3100 1425 L-100 1425 Z"></animate>
  <animateTransform attributeName="transform" type="translate" dur="23.076923076923077s" begin="0s" repeatCount="indefinite" values="0;10;0" calcMode="spline" keySplines="0.3 0 0.7 1;0.3 0 0.7 1"></animateTransform>
</path><path d="M-100 1176.33C14.39 1157.71 11.56 1149.69 119.85 1149.69S230.4 1176.24 339.69 1176.24S453.73 1151.51 559.54 1151.51S673.16 1165.86 779.39 1165.86S891.22 1169.51 999.24 1169.51S1110.1 1125.5 1219.08 1125.5S1330.91 1145.02 1438.93 1145.02S1553.22 1156.47 1658.78 1156.47S1770.49 1143.45 1878.63 1143.45S1995.56 1181.85 2098.47 1181.85S2215.38 1171.18 2318.32 1171.18S2435.68 1172.14 2538.17 1172.14S2653.17 1173.21 2758.02 1173.21S2868.89 1187.02 2977.86 1187.02S3091.41 1136.65 3197.71 1136.65L3100 1425 L-100 1425 Z" fill="#3d7624" stroke-width="0">
  <animate attributeName="d" dur="20.51282051282051s" repeatCount="indefinite" values="M-100 1176.33C14.39 1157.71 11.56 1149.69 119.85 1149.69S230.4 1176.24 339.69 1176.24S453.73 1151.51 559.54 1151.51S673.16 1165.86 779.39 1165.86S891.22 1169.51 999.24 1169.51S1110.1 1125.5 1219.08 1125.5S1330.91 1145.02 1438.93 1145.02S1553.22 1156.47 1658.78 1156.47S1770.49 1143.45 1878.63 1143.45S1995.56 1181.85 2098.47 1181.85S2215.38 1171.18 2318.32 1171.18S2435.68 1172.14 2538.17 1172.14S2653.17 1173.21 2758.02 1173.21S2868.89 1187.02 2977.86 1187.02S3091.41 1136.65 3197.71 1136.65L3100 1425 L-100 1425 Z;M-100 1118.51C10.12 1189.07 14.81 1163.99 119.85 1163.99S233.5 1144.18 339.69 1144.18S451.93 1194.06 559.54 1194.06S676.51 1127.53 779.39 1127.53S891.08 1136.78 999.24 1136.78S1112.36 1129.38 1219.08 1129.38S1336.29 1178.62 1438.93 1178.62S1554.35 1130.81 1658.78 1130.81S1774.22 1149.42 1878.63 1149.42S1990.25 1141.23 2098.47 1141.23S2208.91 1161.66 2318.32 1161.66S2431.51 1128.62 2538.17 1128.62S2651.09 1137.75 2758.02 1137.75S2873.96 1119.99 2977.86 1119.99S3092.91 1191.63 3197.71 1191.63L3100 1425 L-100 1425 Z;M-100 1176.33C14.39 1157.71 11.56 1149.69 119.85 1149.69S230.4 1176.24 339.69 1176.24S453.73 1151.51 559.54 1151.51S673.16 1165.86 779.39 1165.86S891.22 1169.51 999.24 1169.51S1110.1 1125.5 1219.08 1125.5S1330.91 1145.02 1438.93 1145.02S1553.22 1156.47 1658.78 1156.47S1770.49 1143.45 1878.63 1143.45S1995.56 1181.85 2098.47 1181.85S2215.38 1171.18 2318.32 1171.18S2435.68 1172.14 2538.17 1172.14S2653.17 1173.21 2758.02 1173.21S2868.89 1187.02 2977.86 1187.02S3091.41 1136.65 3197.71 1136.65L3100 1425 L-100 1425 Z"></animate>
  <animateTransform attributeName="transform" type="translate" dur="20.51282051282051s" begin="-2.279202279202279s" repeatCount="indefinite" values="0;10;0" calcMode="spline" keySplines="0.3 0 0.7 1;0.3 0 0.7 1"></animateTransform>
</path><path d="M-100 1190.69C19.88 1150.75 17.25 1195.95 126.77 1195.95S241.54 1191.97 353.54 1191.97S468.36 1169.89 580.31 1169.89S698.89 1160.3 807.09 1160.3S920.76 1196.13 1033.86 1196.13S1153.6 1221.42 1260.63 1221.42S1381.58 1188.71 1487.4 1188.71S1600.99 1144.61 1714.17 1144.61S1829.04 1191.86 1940.94 1191.86S2057.3 1164.1 2167.72 1164.1S2287.38 1176.49 2394.49 1176.49S2511.26 1180.48 2621.26 1180.48S2739.45 1172.53 2848.03 1172.53S2962.86 1138.81 3074.8 1138.81S3193.29 1212.41 3301.57 1212.41L3100 1425 L-100 1425 Z" fill="#468127" stroke-width="0">
  <animate attributeName="d" dur="17.94871794871795s" repeatCount="indefinite" values="M-100 1190.69C19.88 1150.75 17.25 1195.95 126.77 1195.95S241.54 1191.97 353.54 1191.97S468.36 1169.89 580.31 1169.89S698.89 1160.3 807.09 1160.3S920.76 1196.13 1033.86 1196.13S1153.6 1221.42 1260.63 1221.42S1381.58 1188.71 1487.4 1188.71S1600.99 1144.61 1714.17 1144.61S1829.04 1191.86 1940.94 1191.86S2057.3 1164.1 2167.72 1164.1S2287.38 1176.49 2394.49 1176.49S2511.26 1180.48 2621.26 1180.48S2739.45 1172.53 2848.03 1172.53S2962.86 1138.81 3074.8 1138.81S3193.29 1212.41 3301.57 1212.41L3100 1425 L-100 1425 Z;M-100 1165.16C16.12 1148.82 18.46 1162.5 126.77 1162.5S246.66 1142.02 353.54 1142.02S473.04 1191.13 580.31 1191.13S699.77 1153.6 807.09 1153.6S920.6 1228.48 1033.86 1228.48S1151.92 1173.62 1260.63 1173.62S1375.54 1226.14 1487.4 1226.14S1607.76 1214.27 1714.17 1214.27S1830.25 1201.2 1940.94 1201.2S2057.07 1136.69 2167.72 1136.69S2288.61 1220.13 2394.49 1220.13S2513.75 1166.65 2621.26 1166.65S2736.21 1152.99 2848.03 1152.99S2968.95 1227.32 3074.8 1227.32S3188.78 1170.67 3301.57 1170.67L3100 1425 L-100 1425 Z;M-100 1190.69C19.88 1150.75 17.25 1195.95 126.77 1195.95S241.54 1191.97 353.54 1191.97S468.36 1169.89 580.31 1169.89S698.89 1160.3 807.09 1160.3S920.76 1196.13 1033.86 1196.13S1153.6 1221.42 1260.63 1221.42S1381.58 1188.71 1487.4 1188.71S1600.99 1144.61 1714.17 1144.61S1829.04 1191.86 1940.94 1191.86S2057.3 1164.1 2167.72 1164.1S2287.38 1176.49 2394.49 1176.49S2511.26 1180.48 2621.26 1180.48S2739.45 1172.53 2848.03 1172.53S2962.86 1138.81 3074.8 1138.81S3193.29 1212.41 3301.57 1212.41L3100 1425 L-100 1425 Z"></animate>
  <animateTransform attributeName="transform" type="translate" dur="17.94871794871795s" begin="-3.988603988603989s" repeatCount="indefinite" values="0;10;0" calcMode="spline" keySplines="0.3 0 0.7 1;0.3 0 0.7 1"></animateTransform>
</path><path d="M-100 1227.77C17.8 1205.02 19.82 1200.53 134.15 1200.53S255.97 1205.39 368.29 1205.39S486.94 1213.65 602.44 1213.65S723.14 1194.04 836.59 1194.04S960.9 1205.81 1070.73 1205.81S1192.96 1183.7 1304.88 1183.7S1429 1241.18 1539.02 1241.18S1657.49 1168.24 1773.17 1168.24S1892.34 1225.29 2007.32 1225.29S2130.53 1182.6 2241.46 1182.6S2363.81 1158.78 2475.61 1158.78S2593.62 1183.77 2709.76 1183.77S2830.04 1222.09 2943.9 1222.09S3067.18 1167.63 3178.05 1167.63L3100 1425 L-100 1425 Z" fill="#508c2a" stroke-width="0">
  <animate attributeName="d" dur="15.384615384615383s" repeatCount="indefinite" values="M-100 1227.77C17.8 1205.02 19.82 1200.53 134.15 1200.53S255.97 1205.39 368.29 1205.39S486.94 1213.65 602.44 1213.65S723.14 1194.04 836.59 1194.04S960.9 1205.81 1070.73 1205.81S1192.96 1183.7 1304.88 1183.7S1429 1241.18 1539.02 1241.18S1657.49 1168.24 1773.17 1168.24S1892.34 1225.29 2007.32 1225.29S2130.53 1182.6 2241.46 1182.6S2363.81 1158.78 2475.61 1158.78S2593.62 1183.77 2709.76 1183.77S2830.04 1222.09 2943.9 1222.09S3067.18 1167.63 3178.05 1167.63L3100 1425 L-100 1425 Z;M-100 1233.92C17.9 1251.55 20.37 1200.73 134.15 1200.73S258.43 1217.17 368.29 1217.17S491.54 1251.57 602.44 1251.57S727.05 1179.28 836.59 1179.28S960.34 1180.95 1070.73 1180.95S1193.54 1190.25 1304.88 1190.25S1426.61 1157.05 1539.02 1157.05S1660.43 1202.93 1773.17 1202.93S1895.44 1217.81 2007.32 1217.81S2129.57 1206.36 2241.46 1206.36S2360.49 1228.86 2475.61 1228.86S2599.32 1189.48 2709.76 1189.48S2833.02 1164.85 2943.9 1164.85S3062.63 1248.19 3178.05 1248.19L3100 1425 L-100 1425 Z;M-100 1227.77C17.8 1205.02 19.82 1200.53 134.15 1200.53S255.97 1205.39 368.29 1205.39S486.94 1213.65 602.44 1213.65S723.14 1194.04 836.59 1194.04S960.9 1205.81 1070.73 1205.81S1192.96 1183.7 1304.88 1183.7S1429 1241.18 1539.02 1241.18S1657.49 1168.24 1773.17 1168.24S1892.34 1225.29 2007.32 1225.29S2130.53 1182.6 2241.46 1182.6S2363.81 1158.78 2475.61 1158.78S2593.62 1183.77 2709.76 1183.77S2830.04 1222.09 2943.9 1222.09S3067.18 1167.63 3178.05 1167.63L3100 1425 L-100 1425 Z"></animate>
  <animateTransform attributeName="transform" type="translate" dur="15.384615384615383s" begin="-5.128205128205128s" repeatCount="indefinite" values="0;10;0" calcMode="spline" keySplines="0.3 0 0.7 1;0.3 0 0.7 1"></animateTransform>
</path><path d="M-100 1221.32C25.33 1206.62 23.03 1257.53 142.02 1257.53S265.22 1176.52 384.03 1176.52S512.42 1275.45 626.05 1275.45S747.07 1228.61 868.07 1228.61S992.03 1260.69 1110.08 1260.69S1235.35 1216.42 1352.1 1216.42S1478.58 1238.39 1594.12 1238.39S1720.87 1186.99 1836.13 1186.99S1959.27 1267.3 2078.15 1267.3S2202.7 1205.11 2320.17 1205.11S2447.04 1184.39 2562.18 1184.39S2684.81 1207.31 2804.2 1207.31S2931.62 1213.18 3046.22 1213.18S3169.43 1273.1 3288.24 1273.1L3100 1425 L-100 1425 Z" fill="#5a972c" stroke-width="0">
  <animate attributeName="d" dur="12.82051282051282s" repeatCount="indefinite" values="M-100 1221.32C25.33 1206.62 23.03 1257.53 142.02 1257.53S265.22 1176.52 384.03 1176.52S512.42 1275.45 626.05 1275.45S747.07 1228.61 868.07 1228.61S992.03 1260.69 1110.08 1260.69S1235.35 1216.42 1352.1 1216.42S1478.58 1238.39 1594.12 1238.39S1720.87 1186.99 1836.13 1186.99S1959.27 1267.3 2078.15 1267.3S2202.7 1205.11 2320.17 1205.11S2447.04 1184.39 2562.18 1184.39S2684.81 1207.31 2804.2 1207.31S2931.62 1213.18 3046.22 1213.18S3169.43 1273.1 3288.24 1273.1L3100 1425 L-100 1425 Z;M-100 1200.24C24.22 1200.13 27.1 1223.83 142.02 1223.83S263.61 1211.45 384.03 1211.45S507.84 1211.71 626.05 1211.71S754.28 1209.76 868.07 1209.76S989.81 1223.19 1110.08 1223.19S1237.09 1224.44 1352.1 1224.44S1473.15 1238.73 1594.12 1238.73S1716.05 1180.77 1836.13 1180.77S1962.54 1219.41 2078.15 1219.41S2202.71 1199.57 2320.17 1199.57S2443.63 1219.93 2562.18 1219.93S2688.05 1218.46 2804.2 1218.46S2928.64 1225.34 3046.22 1225.34S3170.43 1191.67 3288.24 1191.67L3100 1425 L-100 1425 Z;M-100 1221.32C25.33 1206.62 23.03 1257.53 142.02 1257.53S265.22 1176.52 384.03 1176.52S512.42 1275.45 626.05 1275.45S747.07 1228.61 868.07 1228.61S992.03 1260.69 1110.08 1260.69S1235.35 1216.42 1352.1 1216.42S1478.58 1238.39 1594.12 1238.39S1720.87 1186.99 1836.13 1186.99S1959.27 1267.3 2078.15 1267.3S2202.7 1205.11 2320.17 1205.11S2447.04 1184.39 2562.18 1184.39S2684.81 1207.31 2804.2 1207.31S2931.62 1213.18 3046.22 1213.18S3169.43 1273.1 3288.24 1273.1L3100 1425 L-100 1425 Z"></animate>
  <animateTransform attributeName="transform" type="translate" dur="12.82051282051282s" begin="-5.698005698005698s" repeatCount="indefinite" values="0;10;0" calcMode="spline" keySplines="0.3 0 0.7 1;0.3 0 0.7 1"></animateTransform>
</path><path d="M-100 1231.56C32.09 1253.51 29.36 1296.87 150.43 1296.87S277.13 1279.13 400.87 1279.13S530.4 1259.25 651.3 1259.25S784.05 1223.16 901.74 1223.16S1032.35 1237.36 1152.17 1237.36S1282.08 1244.72 1402.61 1244.72S1529.48 1283.81 1653.04 1283.81S1781.24 1210.64 1903.48 1210.64S2032.29 1201.3 2153.91 1201.3S2281.4 1237.1 2404.35 1237.1S2531.17 1308.73 2654.78 1308.73S2786.42 1215.61 2905.22 1215.61S3034.58 1305.04 3155.65 1305.04L3100 1425 L-100 1425 Z" fill="#65a32f" stroke-width="0">
  <animate attributeName="d" dur="10.256410256410255s" repeatCount="indefinite" values="M-100 1231.56C32.09 1253.51 29.36 1296.87 150.43 1296.87S277.13 1279.13 400.87 1279.13S530.4 1259.25 651.3 1259.25S784.05 1223.16 901.74 1223.16S1032.35 1237.36 1152.17 1237.36S1282.08 1244.72 1402.61 1244.72S1529.48 1283.81 1653.04 1283.81S1781.24 1210.64 1903.48 1210.64S2032.29 1201.3 2153.91 1201.3S2281.4 1237.1 2404.35 1237.1S2531.17 1308.73 2654.78 1308.73S2786.42 1215.61 2905.22 1215.61S3034.58 1305.04 3155.65 1305.04L3100 1425 L-100 1425 Z;M-100 1202.25C27.18 1215.89 29.12 1269.45 150.43 1269.45S282.58 1225.77 400.87 1225.77S526.93 1269.88 651.3 1269.88S783.64 1224.01 901.74 1224.01S1029.91 1248.36 1152.17 1248.36S1279.43 1206.39 1402.61 1206.39S1529.61 1290.96 1653.04 1290.96S1778.37 1231.67 1903.48 1231.67S2031.84 1195.78 2153.91 1195.78S2285.38 1258.21 2404.35 1258.21S2532.07 1206.12 2654.78 1206.12S2785.68 1225.2 2905.22 1225.2S3037.82 1257.72 3155.65 1257.72L3100 1425 L-100 1425 Z;M-100 1231.56C32.09 1253.51 29.36 1296.87 150.43 1296.87S277.13 1279.13 400.87 1279.13S530.4 1259.25 651.3 1259.25S784.05 1223.16 901.74 1223.16S1032.35 1237.36 1152.17 1237.36S1282.08 1244.72 1402.61 1244.72S1529.48 1283.81 1653.04 1283.81S1781.24 1210.64 1903.48 1210.64S2032.29 1201.3 2153.91 1201.3S2281.4 1237.1 2404.35 1237.1S2531.17 1308.73 2654.78 1308.73S2786.42 1215.61 2905.22 1215.61S3034.58 1305.04 3155.65 1305.04L3100 1425 L-100 1425 Z"></animate>
  <animateTransform attributeName="transform" type="translate" dur="10.256410256410255s" begin="-5.698005698005698s" repeatCount="indefinite" values="0;10;0" calcMode="spline" keySplines="0.3 0 0.7 1;0.3 0 0.7 1"></animateTransform>
</path><path d="M-100 1230.64C37.21 1253.82 32.47 1304.81 159.46 1304.81S291.37 1233.99 418.92 1233.99S551.57 1302.4 678.38 1302.4S813.86 1283.52 937.84 1283.52S1067.65 1315.56 1197.3 1315.56S1333.07 1283.12 1456.76 1283.12S1592.72 1303.55 1716.22 1303.55S1850.03 1246.99 1975.68 1246.99S2110.73 1287.85 2235.14 1287.85S2369.44 1263.72 2494.59 1263.72S2626.7 1285.36 2754.05 1285.36S2885.87 1239.26 3013.51 1239.26S3144.61 1275.96 3272.97 1275.96L3100 1425 L-100 1425 Z" fill="#70ae31" stroke-width="0">
  <animate attributeName="d" dur="7.692307692307692s" repeatCount="indefinite" values="M-100 1230.64C37.21 1253.82 32.47 1304.81 159.46 1304.81S291.37 1233.99 418.92 1233.99S551.57 1302.4 678.38 1302.4S813.86 1283.52 937.84 1283.52S1067.65 1315.56 1197.3 1315.56S1333.07 1283.12 1456.76 1283.12S1592.72 1303.55 1716.22 1303.55S1850.03 1246.99 1975.68 1246.99S2110.73 1287.85 2235.14 1287.85S2369.44 1263.72 2494.59 1263.72S2626.7 1285.36 2754.05 1285.36S2885.87 1239.26 3013.51 1239.26S3144.61 1275.96 3272.97 1275.96L3100 1425 L-100 1425 Z;M-100 1297.16C37.3 1339.59 35.07 1310.02 159.46 1310.02S292.64 1230.01 418.92 1230.01S553.71 1284.39 678.38 1284.39S812.13 1260.16 937.84 1260.16S1071.86 1278.05 1197.3 1278.05S1332.22 1217.52 1456.76 1217.52S1590.33 1331.33 1716.22 1331.33S1850.73 1267.83 1975.68 1267.83S2112.8 1289.91 2235.14 1289.91S2371.21 1282.85 2494.59 1282.85S2626.37 1334.7 2754.05 1334.7S2885.13 1243.6 3013.51 1243.6S3143.7 1264.04 3272.97 1264.04L3100 1425 L-100 1425 Z;M-100 1230.64C37.21 1253.82 32.47 1304.81 159.46 1304.81S291.37 1233.99 418.92 1233.99S551.57 1302.4 678.38 1302.4S813.86 1283.52 937.84 1283.52S1067.65 1315.56 1197.3 1315.56S1333.07 1283.12 1456.76 1283.12S1592.72 1303.55 1716.22 1303.55S1850.03 1246.99 1975.68 1246.99S2110.73 1287.85 2235.14 1287.85S2369.44 1263.72 2494.59 1263.72S2626.7 1285.36 2754.05 1285.36S2885.87 1239.26 3013.51 1239.26S3144.61 1275.96 3272.97 1275.96L3100 1425 L-100 1425 Z"></animate>
  <animateTransform attributeName="transform" type="translate" dur="7.692307692307692s" begin="-5.128205128205128s" repeatCount="indefinite" values="0;10;0" calcMode="spline" keySplines="0.3 0 0.7 1;0.3 0 0.7 1"></animateTransform>
</path><path d="M-100 1236.44C41.8 1292.1 41.03 1355.58 169.16 1355.58S309.16 1230.87 438.32 1230.87S573.26 1309.66 707.48 1309.66S846.47 1253.65 976.64 1253.65S1112.38 1351.53 1245.79 1351.53S1383.44 1359.59 1514.95 1359.59S1654.34 1299.26 1784.11 1299.26S1924.17 1230.95 2053.27 1230.95S2190.16 1335.89 2322.43 1335.89S2457.65 1250.43 2591.59 1250.43S2731.33 1329.24 2860.75 1329.24S3000.81 1297.27 3129.91 1297.27L3100 1425 L-100 1425 Z" fill="#7cba33" stroke-width="0">
  <animate attributeName="d" dur="5.128205128205128s" repeatCount="indefinite" values="M-100 1236.44C41.8 1292.1 41.03 1355.58 169.16 1355.58S309.16 1230.87 438.32 1230.87S573.26 1309.66 707.48 1309.66S846.47 1253.65 976.64 1253.65S1112.38 1351.53 1245.79 1351.53S1383.44 1359.59 1514.95 1359.59S1654.34 1299.26 1784.11 1299.26S1924.17 1230.95 2053.27 1230.95S2190.16 1335.89 2322.43 1335.89S2457.65 1250.43 2591.59 1250.43S2731.33 1329.24 2860.75 1329.24S3000.81 1297.27 3129.91 1297.27L3100 1425 L-100 1425 Z;M-100 1259.18C42.02 1291.06 39.59 1346.08 169.16 1346.08S309.2 1293.85 438.32 1293.85S577.83 1363.85 707.48 1363.85S846.63 1288.94 976.64 1288.94S1118.74 1325.93 1245.79 1325.93S1381.95 1244.87 1514.95 1244.87S1656.64 1357.32 1784.11 1357.32S1923.49 1277.1 2053.27 1277.1S2195.25 1276.78 2322.43 1276.78S2460.8 1277.91 2591.59 1277.91S2732.45 1307.57 2860.75 1307.57S2998.51 1276.14 3129.91 1276.14L3100 1425 L-100 1425 Z;M-100 1236.44C41.8 1292.1 41.03 1355.58 169.16 1355.58S309.16 1230.87 438.32 1230.87S573.26 1309.66 707.48 1309.66S846.47 1253.65 976.64 1253.65S1112.38 1351.53 1245.79 1351.53S1383.44 1359.59 1514.95 1359.59S1654.34 1299.26 1784.11 1299.26S1924.17 1230.95 2053.27 1230.95S2190.16 1335.89 2322.43 1335.89S2457.65 1250.43 2591.59 1250.43S2731.33 1329.24 2860.75 1329.24S3000.81 1297.27 3129.91 1297.27L3100 1425 L-100 1425 Z"></animate>
  <animateTransform attributeName="transform" type="translate" dur="5.128205128205128s" begin="-3.988603988603989s" repeatCount="indefinite" values="0;10;0" calcMode="spline" keySplines="0.3 0 0.7 1;0.3 0 0.7 1"></animateTransform>
</path><path d="M-100 1284.37C43.73 1310.84 44.36 1329.13 179.61 1329.13S323.75 1311.44 459.22 1311.44S603.5 1320.46 738.83 1320.46S878.76 1273.1 1018.45 1273.1S1161.85 1384.59 1298.06 1384.59S1443.15 1320.57 1577.67 1320.57S1720.34 1338.35 1857.28 1338.35S1998.53 1260.3 2136.89 1260.3S2278.08 1361.63 2416.5 1361.63S2556.6 1325.99 2696.12 1325.99S2837.13 1373.7 2975.73 1373.7S3122.76 1290 3255.34 1290L3100 1425 L-100 1425 Z" fill="#88c535" stroke-width="0">
  <animate attributeName="d" dur="2.564102564102564s" repeatCount="indefinite" values="M-100 1284.37C43.73 1310.84 44.36 1329.13 179.61 1329.13S323.75 1311.44 459.22 1311.44S603.5 1320.46 738.83 1320.46S878.76 1273.1 1018.45 1273.1S1161.85 1384.59 1298.06 1384.59S1443.15 1320.57 1577.67 1320.57S1720.34 1338.35 1857.28 1338.35S1998.53 1260.3 2136.89 1260.3S2278.08 1361.63 2416.5 1361.63S2556.6 1325.99 2696.12 1325.99S2837.13 1373.7 2975.73 1373.7S3122.76 1290 3255.34 1290L3100 1425 L-100 1425 Z;M-100 1280.99C46 1260.15 46.53 1337.06 179.61 1337.06S320.78 1349.65 459.22 1349.65S605.16 1300.56 738.83 1300.56S883.6 1261.79 1018.45 1261.79S1159.02 1373.96 1298.06 1373.96S1445.2 1360.73 1577.67 1360.73S1723.53 1338.67 1857.28 1338.67S1997.18 1362.78 2136.89 1362.78S2278.67 1340.81 2416.5 1340.81S2557.27 1321.53 2696.12 1321.53S2837.53 1394.91 2975.73 1394.91S3117.54 1309.56 3255.34 1309.56L3100 1425 L-100 1425 Z;M-100 1284.37C43.73 1310.84 44.36 1329.13 179.61 1329.13S323.75 1311.44 459.22 1311.44S603.5 1320.46 738.83 1320.46S878.76 1273.1 1018.45 1273.1S1161.85 1384.59 1298.06 1384.59S1443.15 1320.57 1577.67 1320.57S1720.34 1338.35 1857.28 1338.35S1998.53 1260.3 2136.89 1260.3S2278.08 1361.63 2416.5 1361.63S2556.6 1325.99 2696.12 1325.99S2837.13 1373.7 2975.73 1373.7S3122.76 1290 3255.34 1290L3100 1425 L-100 1425 Z"></animate>
  <animateTransform attributeName="transform" type="translate" dur="2.564102564102564s" begin="-2.279202279202279s" repeatCount="indefinite" values="0;10;0" calcMode="spline" keySplines="0.3 0 0.7 1;0.3 0 0.7 1"></animateTransform>
</path></g>
</svg>