<?xml version="1.0" encoding="utf-8"?>
<svg xmlns="http://www.w3.org/2000/svg" xmlns:xlink="http://www.w3.org/1999/xlink" style="margin: auto; background: rgb(41, 41, 41); display: block; z-index: 1; position: relative; shape-rendering: auto;" width="3000" height="1244" preserveAspectRatio="xMidYMid" viewBox="0 0 3000 1244">
<g transform="translate(1500,622) scale(1,1) translate(-1500,-622)"><path d="M-100 966.15C12.36 968.02 10.66 987.61 113.33 987.61S221.72 964.52 326.67 964.52S436.39 982.79 540 982.79S652.59 998.17 753.33 998.17S865.62 1013.5 966.67 1013.5S1073.9 976.11 1180 976.11S1289.65 1022.24 1393.33 1022.24S1505.6 977.1 1606.67 977.1S1715.36 976.46 1820 976.46S1927.81 969.4 2033.33 969.4S2142.79 960.06 2246.67 960.06S2354.05 958.42 2460 958.42S2570.53 1024.05 2673.33 1024.05S2782.8 997.83 2886.67 997.83S2996.55 961.32 3100 961.32S3207.74 1017.7 3313.33 1017.7L3100 1244 L-100 1244 Z" fill="#346b21" stroke-width="0">
  <animate attributeName="d" dur="23.076923076923077s" repeatCount="indefinite" values="M-100 966.15C12.36 968.02 10.66 987.61 113.33 987.61S221.72 964.52 326.67 964.52S436.39 982.79 540 982.79S652.59 998.17 753.33 998.17S865.62 1013.5 966.67 1013.5S1073.9 976.11 1180 976.11S1289.65 1022.24 1393.33 1022.24S1505.6 977.1 1606.67 977.1S1715.36 976.46 1820 976.46S1927.81 969.4 2033.33 969.4S2142.79 960.06 2246.67 960.06S2354.05 958.42 2460 958.42S2570.53 1024.05 2673.33 1024.05S2782.8 997.83 2886.67 997.83S2996.55 961.32 3100 961.32S3207.74 1017.7 3313.33 1017.7L3100 1244 L-100 1244 Z;M-100 1002.58C9.97 982.06 8.08 988.51 113.33 988.51S225.11 975.76 326.67 975.76S439.81 990.73 540 990.73S648.54 975.49 753.33 975.49S861.14 1007.5 966.67 1007.5S1076.93 989.58 1180 989.58S1292.5 971.86 1393.33 971.86S1503.28 998.98 1606.67 998.98S1717.48 962.96 1820 962.96S1931.05 1014.15 2033.33 1014.15S2144.24 1009.15 2246.67 1009.15S2354.01 965.68 2460 965.68S2568.63 970.89 2673.33 970.89S2783.53 989.73 2886.67 989.73S2994.78 984.48 3100 984.48S3207.86 965.01 3313.33 965.01L3100 1244 L-100 1244 Z;M-100 966.15C12.36 968.02 10.66 987.61 113.33 987.61S221.72 964.52 326.67 964.52S436.39 982.79 540 982.79S652.59 998.17 753.33 998.17S865.62 1013.5 966.67 1013.5S1073.9 976.11 1180 976.11S1289.65 1022.24 1393.33 1022.24S1505.6 977.1 1606.67 977.1S1715.36 976.46 1820 976.46S1927.81 969.4 2033.33 969.4S2142.79 960.06 2246.67 960.06S2354.05 958.42 2460 958.42S2570.53 1024.05 2673.33 1024.05S2782.8 997.83 2886.67 997.83S2996.55 961.32 3100 961.32S3207.74 1017.7 3313.33 1017.7L3100 1244 L-100 1244 Z"></animate>
  <animateTransform attributeName="transform" type="translate" dur="23.076923076923077s" begin="0s" repeatCount="indefinite" values="0;10;0" calcMode="spline" keySplines="0.3 0 0.7 1;0.3 0 0.7 1"></animateTransform>
</path><path d="M-100 1042.67C13.59 989.45 10.55 1035.79 119.85 1035.79S232.98 1021.44 339.69 1021.44S452.21 1003.15 559.54 1003.15S673.64 1013.58 779.39 1013.58S891.19 1038.25 999.24 1038.25S1114.2 1013.13 1219.08 1013.13S1330.73 995.69 1438.93 995.69S1552.93 1021.15 1658.78 1021.15S1774.02 1038.18 1878.63 1038.18S1988.64 1036.78 2098.47 1036.78S2213.11 1036.29 2318.32 1036.29S2429.09 1040.46 2538.17 1040.46S2650.81 1037.39 2758.02 1037.39S2872.84 1001.39 2977.86 1001.39S3088.39 1003.51 3197.71 1003.51L3100 1244 L-100 1244 Z" fill="#3d7624" stroke-width="0">
  <animate attributeName="d" dur="20.51282051282051s" repeatCount="indefinite" values="M-100 1042.67C13.59 989.45 10.55 1035.79 119.85 1035.79S232.98 1021.44 339.69 1021.44S452.21 1003.15 559.54 1003.15S673.64 1013.58 779.39 1013.58S891.19 1038.25 999.24 1038.25S1114.2 1013.13 1219.08 1013.13S1330.73 995.69 1438.93 995.69S1552.93 1021.15 1658.78 1021.15S1774.02 1038.18 1878.63 1038.18S1988.64 1036.78 2098.47 1036.78S2213.11 1036.29 2318.32 1036.29S2429.09 1040.46 2538.17 1040.46S2650.81 1037.39 2758.02 1037.39S2872.84 1001.39 2977.86 1001.39S3088.39 1003.51 3197.71 1003.51L3100 1244 L-100 1244 Z;M-100 1025.91C12.6 997.26 11.69 993.67 119.85 993.67S233.06 1006 339.69 1006S449.78 1029.79 559.54 1029.79S671.55 1039.95 779.39 1039.95S893.83 1021.88 999.24 1021.88S1109.47 978.35 1219.08 978.35S1329.51 1029.8 1438.93 1029.8S1551.69 983.35 1658.78 983.35S1769.76 1024.79 1878.63 1024.79S1989.46 1042.25 2098.47 1042.25S2209.59 991.62 2318.32 991.62S2430.26 1035.42 2538.17 1035.42S2652.27 995.95 2758.02 995.95S2873.89 983.21 2977.86 983.21S3089.78 1038.18 3197.71 1038.18L3100 1244 L-100 1244 Z;M-100 1042.67C13.59 989.45 10.55 1035.79 119.85 1035.79S232.98 1021.44 339.69 1021.44S452.21 1003.15 559.54 1003.15S673.64 1013.58 779.39 1013.58S891.19 1038.25 999.24 1038.25S1114.2 1013.13 1219.08 1013.13S1330.73 995.69 1438.93 995.69S1552.93 1021.15 1658.78 1021.15S1774.02 1038.18 1878.63 1038.18S1988.64 1036.78 2098.47 1036.78S2213.11 1036.29 2318.32 1036.29S2429.09 1040.46 2538.17 1040.46S2650.81 1037.39 2758.02 1037.39S2872.84 1001.39 2977.86 1001.39S3088.39 1003.51 3197.71 1003.51L3100 1244 L-100 1244 Z"></animate>
  <animateTransform attributeName="transform" type="translate" dur="20.51282051282051s" begin="-2.279202279202279s" repeatCount="indefinite" values="0;10;0" calcMode="spline" keySplines="0.3 0 0.7 1;0.3 0 0.7 1"></animateTransform>
</path><path d="M-100 1021.61C15.4 1043.85 14.53 1047.51 126.77 1047.51S241.32 1057.08 353.54 1057.08S467.54 1060.86 580.31 1060.86S697.7 997.02 807.09 997.02S922.41 1036.52 1033.86 1036.52S1153.19 1034.07 1260.63 1034.07S1376.92 1055.85 1487.4 1055.85S1601.54 1011.76 1714.17 1011.76S1829.03 1037.2 1940.94 1037.2S2056.36 1038.95 2167.72 1038.95S2285.28 1052.63 2394.49 1052.63S2508.06 991.57 2621.26 991.57S2738.31 996.67 2848.03 996.67S2963.03 1036.21 3074.8 1036.21S3191.78 1028.68 3301.57 1028.68L3100 1244 L-100 1244 Z" fill="#468127" stroke-width="0">
  <animate attributeName="d" dur="17.94871794871795s" repeatCount="indefinite" values="M-100 1021.61C15.4 1043.85 14.53 1047.51 126.77 1047.51S241.32 1057.08 353.54 1057.08S467.54 1060.86 580.31 1060.86S697.7 997.02 807.09 997.02S922.41 1036.52 1033.86 1036.52S1153.19 1034.07 1260.63 1034.07S1376.92 1055.85 1487.4 1055.85S1601.54 1011.76 1714.17 1011.76S1829.03 1037.2 1940.94 1037.2S2056.36 1038.95 2167.72 1038.95S2285.28 1052.63 2394.49 1052.63S2508.06 991.57 2621.26 991.57S2738.31 996.67 2848.03 996.67S2963.03 1036.21 3074.8 1036.21S3191.78 1028.68 3301.57 1028.68L3100 1244 L-100 1244 Z;M-100 1022.43C16.15 1014.19 16.61 1043.59 126.77 1043.59S241.98 1023.45 353.54 1023.45S470.06 1031.33 580.31 1031.33S697.45 1052.03 807.09 1052.03S925.56 1021.21 1033.86 1021.21S1148.37 1047.17 1260.63 1047.17S1375.44 1036.34 1487.4 1036.34S1606.97 1032.88 1714.17 1032.88S1832.85 1015.33 1940.94 1015.33S2057.91 1065.51 2167.72 1065.51S2287.46 1053.36 2394.49 1053.36S2512.07 1013.48 2621.26 1013.48S2734.84 1065.32 2848.03 1065.32S2963.52 1030.09 3074.8 1030.09S3189.16 1034.69 3301.57 1034.69L3100 1244 L-100 1244 Z;M-100 1021.61C15.4 1043.85 14.53 1047.51 126.77 1047.51S241.32 1057.08 353.54 1057.08S467.54 1060.86 580.31 1060.86S697.7 997.02 807.09 997.02S922.41 1036.52 1033.86 1036.52S1153.19 1034.07 1260.63 1034.07S1376.92 1055.85 1487.4 1055.85S1601.54 1011.76 1714.17 1011.76S1829.03 1037.2 1940.94 1037.2S2056.36 1038.95 2167.72 1038.95S2285.28 1052.63 2394.49 1052.63S2508.06 991.57 2621.26 991.57S2738.31 996.67 2848.03 996.67S2963.03 1036.21 3074.8 1036.21S3191.78 1028.68 3301.57 1028.68L3100 1244 L-100 1244 Z"></animate>
  <animateTransform attributeName="transform" type="translate" dur="17.94871794871795s" begin="-3.988603988603989s" repeatCount="indefinite" values="0;10;0" calcMode="spline" keySplines="0.3 0 0.7 1;0.3 0 0.7 1"></animateTransform>
</path><path d="M-100 1060.77C17.22 1017.29 21.52 1022.54 134.15 1022.54S254.56 1058.6 368.29 1058.6S487.13 1081.27 602.44 1081.27S721.05 1060.46 836.59 1060.46S958.4 1019.46 1070.73 1019.46S1193.12 1091.99 1304.88 1091.99S1424.39 1055.69 1539.02 1055.69S1660.13 1062.74 1773.17 1062.74S1894.49 1068.63 2007.32 1068.63S2125.6 1042.57 2241.46 1042.57S2362.55 1041.99 2475.61 1041.99S2596.69 1011.6 2709.76 1011.6S2832.77 1095.92 2943.9 1095.92S3064.53 1018.42 3178.05 1018.42L3100 1244 L-100 1244 Z" fill="#508c2a" stroke-width="0">
  <animate attributeName="d" dur="15.384615384615383s" repeatCount="indefinite" values="M-100 1060.77C17.22 1017.29 21.52 1022.54 134.15 1022.54S254.56 1058.6 368.29 1058.6S487.13 1081.27 602.44 1081.27S721.05 1060.46 836.59 1060.46S958.4 1019.46 1070.73 1019.46S1193.12 1091.99 1304.88 1091.99S1424.39 1055.69 1539.02 1055.69S1660.13 1062.74 1773.17 1062.74S1894.49 1068.63 2007.32 1068.63S2125.6 1042.57 2241.46 1042.57S2362.55 1041.99 2475.61 1041.99S2596.69 1011.6 2709.76 1011.6S2832.77 1095.92 2943.9 1095.92S3064.53 1018.42 3178.05 1018.42L3100 1244 L-100 1244 Z;M-100 1074.97C22.46 1046.12 22.99 1087 134.15 1087S254.38 1016.57 368.29 1016.57S487.97 1033.21 602.44 1033.21S722.36 1033.43 836.59 1033.43S956.77 1074.4 1070.73 1074.4S1187.86 1064.19 1304.88 1064.19S1425.1 1072.85 1539.02 1072.85S1657.87 1025.07 1773.17 1025.07S1893.56 1045.41 2007.32 1045.41S2128.7 1051.1 2241.46 1051.1S2364.11 1025.17 2475.61 1025.17S2594.73 1052 2709.76 1052S2829.46 1089.78 2943.9 1089.78S3062.29 1042.93 3178.05 1042.93L3100 1244 L-100 1244 Z;M-100 1060.77C17.22 1017.29 21.52 1022.54 134.15 1022.54S254.56 1058.6 368.29 1058.6S487.13 1081.27 602.44 1081.27S721.05 1060.46 836.59 1060.46S958.4 1019.46 1070.73 1019.46S1193.12 1091.99 1304.88 1091.99S1424.39 1055.69 1539.02 1055.69S1660.13 1062.74 1773.17 1062.74S1894.49 1068.63 2007.32 1068.63S2125.6 1042.57 2241.46 1042.57S2362.55 1041.99 2475.61 1041.99S2596.69 1011.6 2709.76 1011.6S2832.77 1095.92 2943.9 1095.92S3064.53 1018.42 3178.05 1018.42L3100 1244 L-100 1244 Z"></animate>
  <animateTransform attributeName="transform" type="translate" dur="15.384615384615383s" begin="-5.128205128205128s" repeatCount="indefinite" values="0;10;0" calcMode="spline" keySplines="0.3 0 0.7 1;0.3 0 0.7 1"></animateTransform>
</path><path d="M-100 1081.31C22.04 1046.74 24.23 1086.36 142.02 1086.36S264.49 1057.87 384.03 1057.87S511.41 1119.97 626.05 1119.97S751.73 1062.73 868.07 1062.73S995.16 1051.1 1110.08 1051.1S1233.23 1047.06 1352.1 1047.06S1474.46 1062.16 1594.12 1062.16S1716.92 1077.3 1836.13 1077.3S1961.18 1106.5 2078.15 1106.5S2203.36 1067.84 2320.17 1067.84S2446.58 1093.05 2562.18 1093.05S2687.45 1052.47 2804.2 1052.47S2925.59 1079.68 3046.22 1079.68S3169.36 1077.75 3288.24 1077.75L3100 1244 L-100 1244 Z" fill="#5a972c" stroke-width="0">
  <animate attributeName="d" dur="12.82051282051282s" repeatCount="indefinite" values="M-100 1081.31C22.04 1046.74 24.23 1086.36 142.02 1086.36S264.49 1057.87 384.03 1057.87S511.41 1119.97 626.05 1119.97S751.73 1062.73 868.07 1062.73S995.16 1051.1 1110.08 1051.1S1233.23 1047.06 1352.1 1047.06S1474.46 1062.16 1594.12 1062.16S1716.92 1077.3 1836.13 1077.3S1961.18 1106.5 2078.15 1106.5S2203.36 1067.84 2320.17 1067.84S2446.58 1093.05 2562.18 1093.05S2687.45 1052.47 2804.2 1052.47S2925.59 1079.68 3046.22 1079.68S3169.36 1077.75 3288.24 1077.75L3100 1244 L-100 1244 Z;M-100 1024.24C27.08 1089.33 25.31 1067.66 142.02 1067.66S263.45 1040.36 384.03 1040.36S511.48 1069.91 626.05 1069.91S748.25 1076.23 868.07 1076.23S991.02 1071.23 1110.08 1071.23S1232.48 1036.13 1352.1 1036.13S1479.03 1058.59 1594.12 1058.59S1716.46 1059.72 1836.13 1059.72S1959.66 1031.32 2078.15 1031.32S2199.39 1086.4 2320.17 1086.4S2444.94 1059.71 2562.18 1059.71S2683.95 1118.37 2804.2 1118.37S2931.65 1079.44 3046.22 1079.44S3172.24 1113.97 3288.24 1113.97L3100 1244 L-100 1244 Z;M-100 1081.31C22.04 1046.74 24.23 1086.36 142.02 1086.36S264.49 1057.87 384.03 1057.87S511.41 1119.97 626.05 1119.97S751.73 1062.73 868.07 1062.73S995.16 1051.1 1110.08 1051.1S1233.23 1047.06 1352.1 1047.06S1474.46 1062.16 1594.12 1062.16S1716.92 1077.3 1836.13 1077.3S1961.18 1106.5 2078.15 1106.5S2203.36 1067.84 2320.17 1067.84S2446.58 1093.05 2562.18 1093.05S2687.45 1052.47 2804.2 1052.47S2925.59 1079.68 3046.22 1079.68S3169.36 1077.75 3288.24 1077.75L3100 1244 L-100 1244 Z"></animate>
  <animateTransform attributeName="transform" type="translate" dur="12.82051282051282s" begin="-5.698005698005698s" repeatCount="indefinite" values="0;10;0" calcMode="spline" keySplines="0.3 0 0.7 1;0.3 0 0.7 1"></animateTransform>
</path><path d="M-100 1085.88C27.56 1088.65 25.51 1131.7 150.43 1131.7S279.56 1079.23 400.87 1079.23S530.74 1109.76 651.3 1109.76S778.27 1060.61 901.74 1060.61S1031.28 1137.73 1152.17 1137.73S1279.33 1090.7 1402.61 1090.7S1533.83 1123.32 1653.04 1123.32S1782.75 1062.01 1903.48 1062.01S2034.68 1131.77 2153.91 1131.77S2279.73 1059.68 2404.35 1059.68S2532.38 1043.1 2654.78 1043.1S2781.38 1085.84 2905.22 1085.84S3036.78 1133.12 3155.65 1133.12L3100 1244 L-100 1244 Z" fill="#65a32f" stroke-width="0">
  <animate attributeName="d" dur="10.256410256410255s" repeatCount="indefinite" values="M-100 1085.88C27.56 1088.65 25.51 1131.7 150.43 1131.7S279.56 1079.23 400.87 1079.23S530.74 1109.76 651.3 1109.76S778.27 1060.61 901.74 1060.61S1031.28 1137.73 1152.17 1137.73S1279.33 1090.7 1402.61 1090.7S1533.83 1123.32 1653.04 1123.32S1782.75 1062.01 1903.48 1062.01S2034.68 1131.77 2153.91 1131.77S2279.73 1059.68 2404.35 1059.68S2532.38 1043.1 2654.78 1043.1S2781.38 1085.84 2905.22 1085.84S3036.78 1133.12 3155.65 1133.12L3100 1244 L-100 1244 Z;M-100 1106C31.19 1044.35 26.71 1134.44 150.43 1134.44S278.7 1042.22 400.87 1042.22S529.22 1128.16 651.3 1128.16S782.27 1061.75 901.74 1061.75S1030.17 1104.84 1152.17 1104.84S1281.89 1089.1 1402.61 1089.1S1529.77 1132.51 1653.04 1132.51S1781.31 1085.31 1903.48 1085.31S2030.88 1089.02 2153.91 1089.02S2284.23 1101.6 2404.35 1101.6S2533.08 1082.99 2654.78 1082.99S2784.27 1069.22 2905.22 1069.22S3033.95 1124.03 3155.65 1124.03L3100 1244 L-100 1244 Z;M-100 1085.88C27.56 1088.65 25.51 1131.7 150.43 1131.7S279.56 1079.23 400.87 1079.23S530.74 1109.76 651.3 1109.76S778.27 1060.61 901.74 1060.61S1031.28 1137.73 1152.17 1137.73S1279.33 1090.7 1402.61 1090.7S1533.83 1123.32 1653.04 1123.32S1782.75 1062.01 1903.48 1062.01S2034.68 1131.77 2153.91 1131.77S2279.73 1059.68 2404.35 1059.68S2532.38 1043.1 2654.78 1043.1S2781.38 1085.84 2905.22 1085.84S3036.78 1133.12 3155.65 1133.12L3100 1244 L-100 1244 Z"></animate>
  <animateTransform attributeName="transform" type="translate" dur="10.256410256410255s" begin="-5.698005698005698s" repeatCount="indefinite" values="0;10;0" calcMode="spline" keySplines="0.3 0 0.7 1;0.3 0 0.7 1"></animateTransform>
</path><path d="M-100 1092.94C34.28 1111.09 34.35 1159.63 159.46 1159.63S292.56 1106.13 418.92 1106.13S550.62 1112.23 678.38 1112.23S810.09 1062.91 937.84 1062.91S1073.99 1156.75 1197.3 1156.75S1333.14 1077.27 1456.76 1077.27S1591.34 1063.09 1716.22 1063.09S1847.37 1153.1 1975.68 1153.1S2111.44 1119.12 2235.14 1119.12S2365.87 1078.7 2494.59 1078.7S2626.34 1103.7 2754.05 1103.7S2886.86 1084.77 3013.51 1084.77S3148.62 1124.01 3272.97 1124.01L3100 1244 L-100 1244 Z" fill="#70ae31" stroke-width="0">
  <animate attributeName="d" dur="7.692307692307692s" repeatCount="indefinite" values="M-100 1092.94C34.28 1111.09 34.35 1159.63 159.46 1159.63S292.56 1106.13 418.92 1106.13S550.62 1112.23 678.38 1112.23S810.09 1062.91 937.84 1062.91S1073.99 1156.75 1197.3 1156.75S1333.14 1077.27 1456.76 1077.27S1591.34 1063.09 1716.22 1063.09S1847.37 1153.1 1975.68 1153.1S2111.44 1119.12 2235.14 1119.12S2365.87 1078.7 2494.59 1078.7S2626.34 1103.7 2754.05 1103.7S2886.86 1084.77 3013.51 1084.77S3148.62 1124.01 3272.97 1124.01L3100 1244 L-100 1244 Z;M-100 1111.14C31.34 1101.96 31.8 1112.08 159.46 1112.08S290.72 1107.45 418.92 1107.45S552.85 1123.46 678.38 1123.46S810.27 1067.59 937.84 1067.59S1067.68 1128.8 1197.3 1128.8S1333.19 1112.57 1456.76 1112.57S1590.42 1154.09 1716.22 1154.09S1851.06 1086.54 1975.68 1086.54S2110.69 1166.43 2235.14 1166.43S2369.28 1095.27 2494.59 1095.27S2629.55 1131.4 2754.05 1131.4S2886.62 1067.04 3013.51 1067.04S3148.44 1126.35 3272.97 1126.35L3100 1244 L-100 1244 Z;M-100 1092.94C34.28 1111.09 34.35 1159.63 159.46 1159.63S292.56 1106.13 418.92 1106.13S550.62 1112.23 678.38 1112.23S810.09 1062.91 937.84 1062.91S1073.99 1156.75 1197.3 1156.75S1333.14 1077.27 1456.76 1077.27S1591.34 1063.09 1716.22 1063.09S1847.37 1153.1 1975.68 1153.1S2111.44 1119.12 2235.14 1119.12S2365.87 1078.7 2494.59 1078.7S2626.34 1103.7 2754.05 1103.7S2886.86 1084.77 3013.51 1084.77S3148.62 1124.01 3272.97 1124.01L3100 1244 L-100 1244 Z"></animate>
  <animateTransform attributeName="transform" type="translate" dur="7.692307692307692s" begin="-5.128205128205128s" repeatCount="indefinite" values="0;10;0" calcMode="spline" keySplines="0.3 0 0.7 1;0.3 0 0.7 1"></animateTransform>
</path><path d="M-100 1191.61C37.04 1192.9 39.87 1163.68 169.16 1163.68S306.49 1089.6 438.32 1089.6S577.51 1173.75 707.48 1173.75S844.86 1093.76 976.64 1093.76S1113.47 1194 1245.79 1194S1382.43 1080.5 1514.95 1080.5S1652.54 1150.05 1784.11 1150.05S1925.25 1112.85 2053.27 1112.85S2188.91 1109.68 2322.43 1109.68S2459.9 1079.02 2591.59 1079.02S2730.49 1173.48 2860.75 1173.48S3000.32 1110.91 3129.91 1110.91L3100 1244 L-100 1244 Z" fill="#7cba33" stroke-width="0">
  <animate attributeName="d" dur="5.128205128205128s" repeatCount="indefinite" values="M-100 1191.61C37.04 1192.9 39.87 1163.68 169.16 1163.68S306.49 1089.6 438.32 1089.6S577.51 1173.75 707.48 1173.75S844.86 1093.76 976.64 1093.76S1113.47 1194 1245.79 1194S1382.43 1080.5 1514.95 1080.5S1652.54 1150.05 1784.11 1150.05S1925.25 1112.85 2053.27 1112.85S2188.91 1109.68 2322.43 1109.68S2459.9 1079.02 2591.59 1079.02S2730.49 1173.48 2860.75 1173.48S3000.32 1110.91 3129.91 1110.91L3100 1244 L-100 1244 Z;M-100 1112.98C38.45 1121.95 34.65 1140.21 169.16 1140.21S304.58 1131.88 438.32 1131.88S578.4 1139.18 707.48 1139.18S848.61 1119.58 976.64 1119.58S1114.31 1155.2 1245.79 1155.2S1382.43 1094.15 1514.95 1094.15S1655.78 1090.65 1784.11 1090.65S1924.72 1156.33 2053.27 1156.33S2190.26 1130.15 2322.43 1130.15S2460.2 1178.99 2591.59 1178.99S2731.77 1128.37 2860.75 1128.37S2999.75 1119.89 3129.91 1119.89L3100 1244 L-100 1244 Z;M-100 1191.61C37.04 1192.9 39.87 1163.68 169.16 1163.68S306.49 1089.6 438.32 1089.6S577.51 1173.75 707.48 1173.75S844.86 1093.76 976.64 1093.76S1113.47 1194 1245.79 1194S1382.43 1080.5 1514.95 1080.5S1652.54 1150.05 1784.11 1150.05S1925.25 1112.85 2053.27 1112.85S2188.91 1109.68 2322.43 1109.68S2459.9 1079.02 2591.59 1079.02S2730.49 1173.48 2860.75 1173.48S3000.32 1110.91 3129.91 1110.91L3100 1244 L-100 1244 Z"></animate>
  <animateTransform attributeName="transform" type="translate" dur="5.128205128205128s" begin="-3.988603988603989s" repeatCount="indefinite" values="0;10;0" calcMode="spline" keySplines="0.3 0 0.7 1;0.3 0 0.7 1"></animateTransform>
</path><path d="M-100 1179.18C40.64 1207.42 40.85 1212.34 179.61 1212.34S323.18 1092.63 459.22 1092.63S604.51 1185.83 738.83 1185.83S880.51 1107.24 1018.45 1107.24S1160.83 1190.97 1298.06 1190.97S1439.55 1135.22 1577.67 1135.22S1721.42 1189.54 1857.28 1189.54S2000.17 1095.46 2136.89 1095.46S2279.71 1098.78 2416.5 1098.78S2560.84 1123.76 2696.12 1123.76S2839 1159.1 2975.73 1159.1S3117.58 1135.46 3255.34 1135.46L3100 1244 L-100 1244 Z" fill="#88c535" stroke-width="0">
  <animate attributeName="d" dur="2.564102564102564s" repeatCount="indefinite" values="M-100 1179.18C40.64 1207.42 40.85 1212.34 179.61 1212.34S323.18 1092.63 459.22 1092.63S604.51 1185.83 738.83 1185.83S880.51 1107.24 1018.45 1107.24S1160.83 1190.97 1298.06 1190.97S1439.55 1135.22 1577.67 1135.22S1721.42 1189.54 1857.28 1189.54S2000.17 1095.46 2136.89 1095.46S2279.71 1098.78 2416.5 1098.78S2560.84 1123.76 2696.12 1123.76S2839 1159.1 2975.73 1159.1S3117.58 1135.46 3255.34 1135.46L3100 1244 L-100 1244 Z;M-100 1143.14C40.36 1120.23 44.17 1194.63 179.61 1194.63S319.54 1180.86 459.22 1180.86S604.75 1181.65 738.83 1181.65S883.39 1124.84 1018.45 1124.84S1164.76 1179.41 1298.06 1179.41S1440.87 1126.29 1577.67 1126.29S1721.76 1148.29 1857.28 1148.29S2002.2 1139.06 2136.89 1139.06S2283.16 1168.59 2416.5 1168.59S2557.02 1177.61 2696.12 1177.61S2840.48 1130.02 2975.73 1130.02S3119.62 1119.07 3255.34 1119.07L3100 1244 L-100 1244 Z;M-100 1179.18C40.64 1207.42 40.85 1212.34 179.61 1212.34S323.18 1092.63 459.22 1092.63S604.51 1185.83 738.83 1185.83S880.51 1107.24 1018.45 1107.24S1160.83 1190.97 1298.06 1190.97S1439.55 1135.22 1577.67 1135.22S1721.42 1189.54 1857.28 1189.54S2000.17 1095.46 2136.89 1095.46S2279.71 1098.78 2416.5 1098.78S2560.84 1123.76 2696.12 1123.76S2839 1159.1 2975.73 1159.1S3117.58 1135.46 3255.34 1135.46L3100 1244 L-100 1244 Z"></animate>
  <animateTransform attributeName="transform" type="translate" dur="2.564102564102564s" begin="-2.279202279202279s" repeatCount="indefinite" values="0;10;0" calcMode="spline" keySplines="0.3 0 0.7 1;0.3 0 0.7 1"></animateTransform>
</path></g>
</svg>