<?xml version="1.0" encoding="utf-8"?>
<svg xmlns="http://www.w3.org/2000/svg" xmlns:xlink="http://www.w3.org/1999/xlink" style="background: rgb(129, 129, 129); display: block; position: relative; shape-rendering: auto;" width="192" height="192" preserveAspectRatio="xMidYMid" viewBox="0 0 192 192"><g transform="scale(0.75)"><defs>
  <filter id="pat-0.2808412831590348" x="-100%" y="-100%" width="300%" height="300%" color-interpolation-filters="sRGB">
    <feGaussianBlur in="SourceGraphic" stdDeviation="3.25"></feGaussianBlur>
    <feComponentTransfer result="cutoff">
      <feFuncA type="linear" slope="60" intercept="-40"></feFuncA>
    </feComponentTransfer>
  </filter>
</defs><g filter="url(#f)"><g style="isolation:isolate" filter="url(#pat-0.2808412831590348)">
<rect x="0" y="0" width="256" height="256" fill="none"></rect><g>
  <circle cx="-43.424292762168534" cy="195.26636698198575" r="7.384510498200925" fill="undefined"></circle> <circle cx="212.57570723783147" cy="195.26636698198575" r="7.384510498200925" fill="undefined"></circle> <circle cx="468.57570723783147" cy="195.26636698198575" r="7.384510498200925" fill="undefined"></circle> <circle cx="-43.424292762168534" cy="451.26636698198575" r="7.384510498200925" fill="undefined"></circle> <circle cx="212.57570723783147" cy="451.26636698198575" r="7.384510498200925" fill="undefined"></circle> <circle cx="468.57570723783147" cy="451.26636698198575" r="7.384510498200925" fill="undefined"></circle> <circle cx="-43.424292762168534" cy="707.2663669819858" r="7.384510498200925" fill="undefined"></circle> <circle cx="212.57570723783147" cy="707.2663669819858" r="7.384510498200925" fill="undefined"></circle> <circle cx="468.57570723783147" cy="707.2663669819858" r="7.384510498200925" fill="undefined"></circle> <circle cx="-42.28924359460626" cy="207.83665825980955" r="21.701948354579763" fill="undefined"></circle> <circle cx="213.71075640539374" cy="207.83665825980955" r="21.701948354579763" fill="undefined"></circle> <circle cx="469.71075640539374" cy="207.83665825980955" r="21.701948354579763" fill="undefined"></circle> <circle cx="-42.28924359460626" cy="463.83665825980955" r="21.701948354579763" fill="undefined"></circle> <circle cx="213.71075640539374" cy="463.83665825980955" r="21.701948354579763" fill="undefined"></circle> <circle cx="469.71075640539374" cy="463.83665825980955" r="21.701948354579763" fill="undefined"></circle> <circle cx="-42.28924359460626" cy="719.8366582598096" r="21.701948354579763" fill="undefined"></circle> <circle cx="213.71075640539374" cy="719.8366582598096" r="21.701948354579763" fill="undefined"></circle> <circle cx="469.71075640539374" cy="719.8366582598096" r="21.701948354579763" fill="undefined"></circle> <circle cx="-35.101166148767675" cy="91.7613919780186" r="37.77259511132293" fill="undefined"></circle> <circle cx="220.89883385123233" cy="91.7613919780186" r="37.77259511132293" fill="undefined"></circle> <circle cx="476.8988338512323" cy="91.7613919780186" r="37.77259511132293" fill="undefined"></circle> <circle cx="-35.101166148767675" cy="347.7613919780186" r="37.77259511132293" fill="undefined"></circle> <circle cx="220.89883385123233" cy="347.7613919780186" r="37.77259511132293" fill="undefined"></circle> <circle cx="476.8988338512323" cy="347.7613919780186" r="37.77259511132293" fill="undefined"></circle> <circle cx="-35.101166148767675" cy="603.7613919780185" r="37.77259511132293" fill="undefined"></circle> <circle cx="220.89883385123233" cy="603.7613919780185" r="37.77259511132293" fill="undefined"></circle> <circle cx="476.8988338512323" cy="603.7613919780185" r="37.77259511132293" fill="undefined"></circle> <circle cx="-213.45830459632037" cy="174.13794460934838" r="12.563789873474258" fill="undefined"></circle> <circle cx="42.541695403679626" cy="174.13794460934838" r="12.563789873474258" fill="undefined"></circle> <circle cx="298.5416954036796" cy="174.13794460934838" r="12.563789873474258" fill="undefined"></circle> <circle cx="-213.45830459632037" cy="430.1379446093484" r="12.563789873474258" fill="undefined"></circle> <circle cx="42.541695403679626" cy="430.1379446093484" r="12.563789873474258" fill="undefined"></circle> <circle cx="298.5416954036796" cy="430.1379446093484" r="12.563789873474258" fill="undefined"></circle> <circle cx="-213.45830459632037" cy="686.1379446093483" r="12.563789873474258" fill="undefined"></circle> <circle cx="42.541695403679626" cy="686.1379446093483" r="12.563789873474258" fill="undefined"></circle> <circle cx="298.5416954036796" cy="686.1379446093483" r="12.563789873474258" fill="undefined"></circle> <circle cx="-146.3251633959017" cy="3.269985061634827" r="42.09805256720638" fill="undefined"></circle> <circle cx="109.67483660409829" cy="3.269985061634827" r="42.09805256720638" fill="undefined"></circle> <circle cx="365.6748366040983" cy="3.269985061634827" r="42.09805256720638" fill="undefined"></circle> <circle cx="-146.3251633959017" cy="259.2699850616348" r="42.09805256720638" fill="undefined"></circle> <circle cx="109.67483660409829" cy="259.2699850616348" r="42.09805256720638" fill="undefined"></circle> <circle cx="365.6748366040983" cy="259.2699850616348" r="42.09805256720638" fill="undefined"></circle> <circle cx="-146.3251633959017" cy="515.2699850616348" r="42.09805256720638" fill="undefined"></circle> <circle cx="109.67483660409829" cy="515.2699850616348" r="42.09805256720638" fill="undefined"></circle> <circle cx="365.6748366040983" cy="515.2699850616348" r="42.09805256720638" fill="undefined"></circle> <circle cx="-220.72202573888234" cy="205.42510110095157" r="10.591000577243932" fill="undefined"></circle> <circle cx="35.27797426111766" cy="205.42510110095157" r="10.591000577243932" fill="undefined"></circle> <circle cx="291.27797426111766" cy="205.42510110095157" r="10.591000577243932" fill="undefined"></circle> <circle cx="-220.72202573888234" cy="461.42510110095157" r="10.591000577243932" fill="undefined"></circle> <circle cx="35.27797426111766" cy="461.42510110095157" r="10.591000577243932" fill="undefined"></circle> <circle cx="291.27797426111766" cy="461.42510110095157" r="10.591000577243932" fill="undefined"></circle> <circle cx="-220.72202573888234" cy="717.4251011009516" r="10.591000577243932" fill="undefined"></circle> <circle cx="35.27797426111766" cy="717.4251011009516" r="10.591000577243932" fill="undefined"></circle> <circle cx="291.27797426111766" cy="717.4251011009516" r="10.591000577243932" fill="undefined"></circle> <circle cx="-188.68770442744142" cy="-35.88354000167976" r="39.95110155996821" fill="undefined"></circle> <circle cx="67.31229557255858" cy="-35.88354000167976" r="39.95110155996821" fill="undefined"></circle> <circle cx="323.3122955725586" cy="-35.88354000167976" r="39.95110155996821" fill="undefined"></circle> <circle cx="-188.68770442744142" cy="220.11645999832024" r="39.95110155996821" fill="undefined"></circle> <circle cx="67.31229557255858" cy="220.11645999832024" r="39.95110155996821" fill="undefined"></circle> <circle cx="323.3122955725586" cy="220.11645999832024" r="39.95110155996821" fill="undefined"></circle> <circle cx="-188.68770442744142" cy="476.11645999832024" r="39.95110155996821" fill="undefined"></circle> <circle cx="67.31229557255858" cy="476.11645999832024" r="39.95110155996821" fill="undefined"></circle> <circle cx="323.3122955725586" cy="476.11645999832024" r="39.95110155996821" fill="undefined"></circle> <circle cx="-188.68770442744142" cy="732.1164599983202" r="39.95110155996821" fill="undefined"></circle> <circle cx="67.31229557255858" cy="732.1164599983202" r="39.95110155996821" fill="undefined"></circle> <circle cx="323.3122955725586" cy="732.1164599983202" r="39.95110155996821" fill="undefined"></circle> 
  <animateTransform attributeName="transform" type="translate" dur="3.3333333333333335s" repeatCount="indefinite" keyTimes="0;1" values="0 0;0 -256"></animateTransform>
</g><g>
  <circle cx="-159.41358416503903" cy="27.63511520180043" r="22.782654966844753" fill="undefined"></circle> <circle cx="96.58641583496097" cy="27.63511520180043" r="22.782654966844753" fill="undefined"></circle> <circle cx="352.586415834961" cy="27.63511520180043" r="22.782654966844753" fill="undefined"></circle> <circle cx="-159.41358416503903" cy="283.63511520180043" r="22.782654966844753" fill="undefined"></circle> <circle cx="96.58641583496097" cy="283.63511520180043" r="22.782654966844753" fill="undefined"></circle> <circle cx="352.586415834961" cy="283.63511520180043" r="22.782654966844753" fill="undefined"></circle> <circle cx="-159.41358416503903" cy="539.6351152018004" r="22.782654966844753" fill="undefined"></circle> <circle cx="96.58641583496097" cy="539.6351152018004" r="22.782654966844753" fill="undefined"></circle> <circle cx="352.586415834961" cy="539.6351152018004" r="22.782654966844753" fill="undefined"></circle> <circle cx="-5.537769405022345" cy="69.16253158263771" r="7.24710317781267" fill="undefined"></circle> <circle cx="250.46223059497765" cy="69.16253158263771" r="7.24710317781267" fill="undefined"></circle> <circle cx="506.46223059497765" cy="69.16253158263771" r="7.24710317781267" fill="undefined"></circle> <circle cx="-5.537769405022345" cy="325.1625315826377" r="7.24710317781267" fill="undefined"></circle> <circle cx="250.46223059497765" cy="325.1625315826377" r="7.24710317781267" fill="undefined"></circle> <circle cx="506.46223059497765" cy="325.1625315826377" r="7.24710317781267" fill="undefined"></circle> <circle cx="-5.537769405022345" cy="581.1625315826377" r="7.24710317781267" fill="undefined"></circle> <circle cx="250.46223059497765" cy="581.1625315826377" r="7.24710317781267" fill="undefined"></circle> <circle cx="506.46223059497765" cy="581.1625315826377" r="7.24710317781267" fill="undefined"></circle> <circle cx="-205.46381462111776" cy="135.91618023680076" r="40.185615202903904" fill="undefined"></circle> <circle cx="50.53618537888224" cy="135.91618023680076" r="40.185615202903904" fill="undefined"></circle> <circle cx="306.53618537888224" cy="135.91618023680076" r="40.185615202903904" fill="undefined"></circle> <circle cx="-205.46381462111776" cy="391.91618023680076" r="40.185615202903904" fill="undefined"></circle> <circle cx="50.53618537888224" cy="391.91618023680076" r="40.185615202903904" fill="undefined"></circle> <circle cx="306.53618537888224" cy="391.91618023680076" r="40.185615202903904" fill="undefined"></circle> <circle cx="-205.46381462111776" cy="647.9161802368008" r="40.185615202903904" fill="undefined"></circle> <circle cx="50.53618537888224" cy="647.9161802368008" r="40.185615202903904" fill="undefined"></circle> <circle cx="306.53618537888224" cy="647.9161802368008" r="40.185615202903904" fill="undefined"></circle> <circle cx="-133.9137606185107" cy="163.23397556194743" r="28.49521784948883" fill="undefined"></circle> <circle cx="122.08623938148929" cy="163.23397556194743" r="28.49521784948883" fill="undefined"></circle> <circle cx="378.0862393814893" cy="163.23397556194743" r="28.49521784948883" fill="undefined"></circle> <circle cx="-133.9137606185107" cy="419.23397556194743" r="28.49521784948883" fill="undefined"></circle> <circle cx="122.08623938148929" cy="419.23397556194743" r="28.49521784948883" fill="undefined"></circle> <circle cx="378.0862393814893" cy="419.23397556194743" r="28.49521784948883" fill="undefined"></circle> <circle cx="-133.9137606185107" cy="675.2339755619474" r="28.49521784948883" fill="undefined"></circle> <circle cx="122.08623938148929" cy="675.2339755619474" r="28.49521784948883" fill="undefined"></circle> <circle cx="378.0862393814893" cy="675.2339755619474" r="28.49521784948883" fill="undefined"></circle> <circle cx="-239.12460341676996" cy="163.9101980198584" r="13.813970300947735" fill="undefined"></circle> <circle cx="16.875396583230042" cy="163.9101980198584" r="13.813970300947735" fill="undefined"></circle> <circle cx="272.87539658323004" cy="163.9101980198584" r="13.813970300947735" fill="undefined"></circle> <circle cx="-239.12460341676996" cy="419.9101980198584" r="13.813970300947735" fill="undefined"></circle> <circle cx="16.875396583230042" cy="419.9101980198584" r="13.813970300947735" fill="undefined"></circle> <circle cx="272.87539658323004" cy="419.9101980198584" r="13.813970300947735" fill="undefined"></circle> <circle cx="-239.12460341676996" cy="675.9101980198584" r="13.813970300947735" fill="undefined"></circle> <circle cx="16.875396583230042" cy="675.9101980198584" r="13.813970300947735" fill="undefined"></circle> <circle cx="272.87539658323004" cy="675.9101980198584" r="13.813970300947735" fill="undefined"></circle> <circle cx="-160.90818194140087" cy="31.85859334665338" r="34.84997748909286" fill="undefined"></circle> <circle cx="95.09181805859913" cy="31.85859334665338" r="34.84997748909286" fill="undefined"></circle> <circle cx="351.09181805859913" cy="31.85859334665338" r="34.84997748909286" fill="undefined"></circle> <circle cx="-160.90818194140087" cy="287.8585933466534" r="34.84997748909286" fill="undefined"></circle> <circle cx="95.09181805859913" cy="287.8585933466534" r="34.84997748909286" fill="undefined"></circle> <circle cx="351.09181805859913" cy="287.8585933466534" r="34.84997748909286" fill="undefined"></circle> <circle cx="-160.90818194140087" cy="543.8585933466534" r="34.84997748909286" fill="undefined"></circle> <circle cx="95.09181805859913" cy="543.8585933466534" r="34.84997748909286" fill="undefined"></circle> <circle cx="351.09181805859913" cy="543.8585933466534" r="34.84997748909286" fill="undefined"></circle> <circle cx="-233.68740583853457" cy="-17.260035602874098" r="25.15619501609673" fill="undefined"></circle> <circle cx="22.312594161465427" cy="-17.260035602874098" r="25.15619501609673" fill="undefined"></circle> <circle cx="278.3125941614654" cy="-17.260035602874098" r="25.15619501609673" fill="undefined"></circle> <circle cx="-233.68740583853457" cy="238.7399643971259" r="25.15619501609673" fill="undefined"></circle> <circle cx="22.312594161465427" cy="238.7399643971259" r="25.15619501609673" fill="undefined"></circle> <circle cx="278.3125941614654" cy="238.7399643971259" r="25.15619501609673" fill="undefined"></circle> <circle cx="-233.68740583853457" cy="494.7399643971259" r="25.15619501609673" fill="undefined"></circle> <circle cx="22.312594161465427" cy="494.7399643971259" r="25.15619501609673" fill="undefined"></circle> <circle cx="278.3125941614654" cy="494.7399643971259" r="25.15619501609673" fill="undefined"></circle> <circle cx="-233.68740583853457" cy="750.739964397126" r="25.15619501609673" fill="undefined"></circle> <circle cx="22.312594161465427" cy="750.739964397126" r="25.15619501609673" fill="undefined"></circle> <circle cx="278.3125941614654" cy="750.739964397126" r="25.15619501609673" fill="undefined"></circle> 
  <animateTransform attributeName="transform" type="translate" dur="1.6666666666666667s" repeatCount="indefinite" keyTimes="0;1" values="0 0;0 -256"></animateTransform>
</g><g>
  <circle cx="-12.598767156219992" cy="65.13979381795394" r="25.668994003004826" fill="undefined"></circle> <circle cx="243.40123284378" cy="65.13979381795394" r="25.668994003004826" fill="undefined"></circle> <circle cx="499.40123284378" cy="65.13979381795394" r="25.668994003004826" fill="undefined"></circle> <circle cx="-12.598767156219992" cy="321.13979381795394" r="25.668994003004826" fill="undefined"></circle> <circle cx="243.40123284378" cy="321.13979381795394" r="25.668994003004826" fill="undefined"></circle> <circle cx="499.40123284378" cy="321.13979381795394" r="25.668994003004826" fill="undefined"></circle> <circle cx="-12.598767156219992" cy="577.1397938179539" r="25.668994003004826" fill="undefined"></circle> <circle cx="243.40123284378" cy="577.1397938179539" r="25.668994003004826" fill="undefined"></circle> <circle cx="499.40123284378" cy="577.1397938179539" r="25.668994003004826" fill="undefined"></circle> <circle cx="-131.09768012962195" cy="-18.24323662796195" r="37.17924290958457" fill="undefined"></circle> <circle cx="124.90231987037805" cy="-18.24323662796195" r="37.17924290958457" fill="undefined"></circle> <circle cx="380.90231987037805" cy="-18.24323662796195" r="37.17924290958457" fill="undefined"></circle> <circle cx="-131.09768012962195" cy="237.75676337203805" r="37.17924290958457" fill="undefined"></circle> <circle cx="124.90231987037805" cy="237.75676337203805" r="37.17924290958457" fill="undefined"></circle> <circle cx="380.90231987037805" cy="237.75676337203805" r="37.17924290958457" fill="undefined"></circle> <circle cx="-131.09768012962195" cy="493.75676337203805" r="37.17924290958457" fill="undefined"></circle> <circle cx="124.90231987037805" cy="493.75676337203805" r="37.17924290958457" fill="undefined"></circle> <circle cx="380.90231987037805" cy="493.75676337203805" r="37.17924290958457" fill="undefined"></circle> <circle cx="-131.09768012962195" cy="749.756763372038" r="37.17924290958457" fill="undefined"></circle> <circle cx="124.90231987037805" cy="749.756763372038" r="37.17924290958457" fill="undefined"></circle> <circle cx="380.90231987037805" cy="749.756763372038" r="37.17924290958457" fill="undefined"></circle> <circle cx="-200.73921756800053" cy="139.54410910326897" r="32.4861757000179" fill="undefined"></circle> <circle cx="55.26078243199947" cy="139.54410910326897" r="32.4861757000179" fill="undefined"></circle> <circle cx="311.2607824319995" cy="139.54410910326897" r="32.4861757000179" fill="undefined"></circle> <circle cx="-200.73921756800053" cy="395.54410910326897" r="32.4861757000179" fill="undefined"></circle> <circle cx="55.26078243199947" cy="395.54410910326897" r="32.4861757000179" fill="undefined"></circle> <circle cx="311.2607824319995" cy="395.54410910326897" r="32.4861757000179" fill="undefined"></circle> <circle cx="-200.73921756800053" cy="651.544109103269" r="32.4861757000179" fill="undefined"></circle> <circle cx="55.26078243199947" cy="651.544109103269" r="32.4861757000179" fill="undefined"></circle> <circle cx="311.2607824319995" cy="651.544109103269" r="32.4861757000179" fill="undefined"></circle> <circle cx="-115.0680931154663" cy="214.12523800880268" r="32.529682721802374" fill="undefined"></circle> <circle cx="140.9319068845337" cy="214.12523800880268" r="32.529682721802374" fill="undefined"></circle> <circle cx="396.9319068845337" cy="214.12523800880268" r="32.529682721802374" fill="undefined"></circle> <circle cx="-115.0680931154663" cy="470.1252380088027" r="32.529682721802374" fill="undefined"></circle> <circle cx="140.9319068845337" cy="470.1252380088027" r="32.529682721802374" fill="undefined"></circle> <circle cx="396.9319068845337" cy="470.1252380088027" r="32.529682721802374" fill="undefined"></circle> <circle cx="-115.0680931154663" cy="726.1252380088026" r="32.529682721802374" fill="undefined"></circle> <circle cx="140.9319068845337" cy="726.1252380088026" r="32.529682721802374" fill="undefined"></circle> <circle cx="396.9319068845337" cy="726.1252380088026" r="32.529682721802374" fill="undefined"></circle> <circle cx="-130.80328670709486" cy="210.06227389968853" r="18.80176051353846" fill="undefined"></circle> <circle cx="125.19671329290514" cy="210.06227389968853" r="18.80176051353846" fill="undefined"></circle> <circle cx="381.19671329290514" cy="210.06227389968853" r="18.80176051353846" fill="undefined"></circle> <circle cx="-130.80328670709486" cy="466.06227389968853" r="18.80176051353846" fill="undefined"></circle> <circle cx="125.19671329290514" cy="466.06227389968853" r="18.80176051353846" fill="undefined"></circle> <circle cx="381.19671329290514" cy="466.06227389968853" r="18.80176051353846" fill="undefined"></circle> <circle cx="-130.80328670709486" cy="722.0622738996885" r="18.80176051353846" fill="undefined"></circle> <circle cx="125.19671329290514" cy="722.0622738996885" r="18.80176051353846" fill="undefined"></circle> <circle cx="381.19671329290514" cy="722.0622738996885" r="18.80176051353846" fill="undefined"></circle> <circle cx="-51.484117944841955" cy="184.47188710739874" r="33.44990139657699" fill="undefined"></circle> <circle cx="204.51588205515804" cy="184.47188710739874" r="33.44990139657699" fill="undefined"></circle> <circle cx="460.51588205515804" cy="184.47188710739874" r="33.44990139657699" fill="undefined"></circle> <circle cx="-51.484117944841955" cy="440.47188710739874" r="33.44990139657699" fill="undefined"></circle> <circle cx="204.51588205515804" cy="440.47188710739874" r="33.44990139657699" fill="undefined"></circle> <circle cx="460.51588205515804" cy="440.47188710739874" r="33.44990139657699" fill="undefined"></circle> <circle cx="-51.484117944841955" cy="696.4718871073987" r="33.44990139657699" fill="undefined"></circle> <circle cx="204.51588205515804" cy="696.4718871073987" r="33.44990139657699" fill="undefined"></circle> <circle cx="460.51588205515804" cy="696.4718871073987" r="33.44990139657699" fill="undefined"></circle> 
  <animateTransform attributeName="transform" type="translate" dur="1.1111111111111112s" repeatCount="indefinite" keyTimes="0;1" values="0 0;0 -256"></animateTransform>
</g></g></g><filter id="f">
<feDiffuseLighting lighting-color="#818181" surfaceScale="0.5" result="light">
  <feDistantLight azimuth="45" elevation="60"></feDistantLight>
</feDiffuseLighting>
</filter></g></svg>